
<svg id="svg" version="1.1" xmlns="http://www.w3.org/2000/svg" xmlns:xlink="http://www.w3.org/1999/xlink" width="400" height="400" viewBox="0, 0, 400,400"><g id="svgg"><path id="path0" d="M0.000 200.000 L 0.000 400.000 200.000 400.000 L 400.000 400.000 400.000 200.000 L 400.000 0.000 200.000 0.000 L 0.000 0.000 0.000 200.000 M152.400 177.171 C 152.400 177.344,153.515 177.603,154.878 177.745 C 156.240 177.887,157.455 178.159,157.578 178.348 C 157.700 178.537,158.250 178.832,158.800 179.003 C 159.932 179.356,161.200 180.654,161.200 181.461 C 161.200 181.758,161.366 182.000,161.568 182.000 C 161.771 182.000,162.063 182.585,162.218 183.300 C 162.374 184.015,162.657 184.700,162.849 184.823 C 163.041 184.946,163.315 186.701,163.459 188.723 C 163.602 190.745,163.873 192.400,164.060 192.400 C 164.247 192.400,164.400 198.160,164.400 205.200 C 164.400 212.240,164.247 218.000,164.059 218.000 C 163.872 218.000,163.612 219.648,163.481 221.663 C 163.351 223.677,163.080 225.432,162.880 225.563 C 162.679 225.693,162.391 226.475,162.240 227.300 C 162.088 228.125,161.811 228.800,161.625 228.800 C 161.439 228.800,161.174 229.247,161.037 229.794 C 160.883 230.407,160.407 230.883,159.794 231.037 C 159.247 231.174,158.800 231.439,158.800 231.625 C 158.800 231.811,158.125 232.088,157.300 232.240 C 156.475 232.391,155.695 232.677,155.566 232.874 C 155.438 233.071,153.143 233.343,150.466 233.477 C 147.356 233.634,145.598 233.880,145.594 234.161 C 145.590 234.417,145.450 234.383,145.258 234.081 C 145.007 233.684,142.287 233.509,133.764 233.340 C 127.624 233.218,122.510 232.981,122.400 232.813 C 122.290 232.645,121.776 232.375,121.257 232.213 C 119.941 231.802,118.800 230.749,118.800 229.944 C 118.800 229.572,118.616 229.205,118.391 229.130 C 118.165 229.055,117.867 228.289,117.727 227.427 C 117.279 224.670,116.779 224.400,112.111 224.400 C 109.850 224.400,108.000 224.246,108.000 224.057 C 108.000 223.869,106.520 223.613,104.711 223.489 C 102.901 223.365,101.356 223.069,101.277 222.832 C 101.198 222.594,100.905 222.400,100.625 222.400 C 99.671 222.400,98.053 220.490,97.782 219.043 C 97.633 218.250,97.351 217.600,97.155 217.600 C 96.960 217.600,96.800 215.710,96.800 213.400 C 96.800 211.090,96.956 209.200,97.146 209.200 C 97.337 209.200,97.584 207.920,97.696 206.355 C 97.808 204.790,98.078 203.395,98.296 203.255 C 98.514 203.115,98.828 202.565,98.994 202.034 C 99.399 200.737,100.897 199.291,102.166 198.973 C 102.734 198.830,103.200 198.553,103.200 198.357 C 103.200 198.160,103.580 198.000,104.044 198.000 C 105.081 198.000,106.784 196.452,106.793 195.500 C 106.797 195.115,106.953 194.800,107.141 194.800 C 107.328 194.800,107.605 193.052,107.755 190.915 C 107.905 188.778,108.176 186.933,108.356 186.815 C 108.537 186.697,108.809 185.925,108.960 185.100 C 109.112 184.275,109.408 183.600,109.618 183.600 C 109.828 183.600,110.000 183.426,110.000 183.213 C 110.000 182.710,112.710 180.000,113.213 180.000 C 113.426 180.000,113.600 179.840,113.600 179.645 C 113.600 179.449,114.275 179.162,115.099 179.008 C 115.924 178.853,116.695 178.569,116.814 178.377 C 116.933 178.185,118.823 177.905,121.015 177.754 C 123.207 177.603,125.132 177.282,125.294 177.040 C 125.497 176.736,125.590 176.754,125.594 177.100 C 125.599 177.478,127.110 177.600,131.800 177.600 C 135.506 177.600,138.000 177.445,138.000 177.215 C 138.000 177.003,139.605 176.778,141.567 176.715 C 146.586 176.553,152.400 176.798,152.400 177.171 M272.400 177.182 C 272.510 177.345,273.673 177.602,274.985 177.753 C 276.296 177.904,277.466 178.177,277.585 178.360 C 277.703 178.542,278.250 178.832,278.800 179.003 C 279.932 179.356,281.200 180.654,281.200 181.461 C 281.200 181.758,281.366 182.000,281.568 182.000 C 281.771 182.000,282.063 182.585,282.218 183.300 C 282.374 184.015,282.657 184.700,282.849 184.823 C 283.041 184.946,283.315 186.701,283.459 188.723 C 283.602 190.745,283.873 192.400,284.060 192.400 C 284.247 192.400,284.400 198.160,284.400 205.200 C 284.400 212.240,284.247 218.000,284.059 218.000 C 283.872 218.000,283.612 219.648,283.481 221.663 C 283.351 223.677,283.080 225.432,282.880 225.563 C 282.679 225.693,282.391 226.475,282.240 227.300 C 282.088 228.125,281.811 228.800,281.625 228.800 C 281.439 228.800,281.174 229.247,281.037 229.794 C 280.883 230.407,280.407 230.883,279.794 231.037 C 279.247 231.174,278.800 231.439,278.800 231.625 C 278.800 231.811,278.125 232.088,277.300 232.240 C 276.475 232.391,275.696 232.674,275.570 232.869 C 275.443 233.063,273.193 233.334,270.570 233.471 C 267.833 233.614,265.672 233.908,265.500 234.160 C 265.289 234.469,265.098 234.442,264.858 234.070 C 264.594 233.661,262.040 233.496,253.564 233.341 C 247.540 233.231,242.519 232.999,242.405 232.825 C 242.292 232.650,241.776 232.375,241.257 232.213 C 239.941 231.802,238.800 230.749,238.800 229.944 C 238.800 229.572,238.616 229.205,238.391 229.130 C 238.165 229.055,237.867 228.289,237.727 227.427 C 237.279 224.670,236.779 224.400,232.111 224.400 C 229.850 224.400,228.000 224.246,228.000 224.057 C 228.000 223.869,226.520 223.613,224.711 223.489 C 222.901 223.365,221.356 223.069,221.277 222.832 C 221.198 222.594,220.905 222.400,220.625 222.400 C 219.671 222.400,218.053 220.490,217.782 219.043 C 217.633 218.250,217.351 217.600,217.155 217.600 C 216.960 217.600,216.800 215.710,216.800 213.400 C 216.800 211.090,216.956 209.200,217.146 209.200 C 217.337 209.200,217.584 207.920,217.696 206.355 C 217.808 204.790,218.078 203.395,218.296 203.255 C 218.514 203.115,218.828 202.565,218.994 202.034 C 219.399 200.737,220.897 199.291,222.166 198.973 C 222.734 198.830,223.200 198.553,223.200 198.357 C 223.200 198.160,223.532 198.000,223.938 198.000 C 224.921 198.000,226.800 196.350,226.800 195.487 C 226.800 195.109,226.953 194.800,227.141 194.800 C 227.328 194.800,227.605 193.052,227.755 190.915 C 227.905 188.778,228.176 186.933,228.356 186.815 C 228.537 186.697,228.809 185.925,228.960 185.100 C 229.112 184.275,229.408 183.600,229.618 183.600 C 229.828 183.600,230.000 183.426,230.000 183.213 C 230.000 182.710,232.710 180.000,233.213 180.000 C 233.426 180.000,233.600 179.828,233.600 179.618 C 233.600 179.408,234.275 179.112,235.100 178.960 C 235.925 178.809,236.695 178.540,236.811 178.363 C 236.926 178.187,238.726 177.916,240.811 177.762 C 242.895 177.608,244.749 177.283,244.930 177.041 C 245.166 176.727,245.319 176.744,245.464 177.100 C 245.714 177.717,258.000 177.831,258.000 177.216 C 258.000 176.517,271.930 176.484,272.400 177.182 M193.975 197.737 C 198.471 197.878,202.251 198.149,202.375 198.339 C 202.499 198.529,203.494 198.783,204.587 198.903 C 205.680 199.023,206.640 199.319,206.720 199.561 C 206.801 199.802,207.046 200.000,207.264 200.000 C 207.483 200.000,208.202 200.540,208.862 201.200 C 209.522 201.860,210.208 202.400,210.387 202.400 C 210.567 202.400,210.837 202.893,210.988 203.496 C 211.140 204.099,211.474 204.729,211.732 204.896 C 212.073 205.117,212.079 205.281,211.754 205.500 C 211.509 205.665,211.176 206.223,211.014 206.739 C 210.639 207.941,207.959 210.632,206.758 211.013 C 204.056 211.871,203.290 218.406,205.818 219.040 C 206.358 219.176,206.800 219.447,206.800 219.643 C 206.800 219.840,206.994 220.000,207.231 220.000 C 207.468 220.000,208.202 220.540,208.862 221.200 C 209.522 221.860,210.208 222.400,210.387 222.400 C 210.567 222.400,210.837 222.893,210.988 223.496 C 211.140 224.099,211.474 224.729,211.732 224.896 C 212.073 225.117,212.079 225.281,211.754 225.500 C 211.509 225.665,211.176 226.223,211.014 226.739 C 210.853 227.256,210.037 228.363,209.200 229.200 C 208.363 230.037,207.256 230.853,206.739 231.014 C 206.223 231.176,205.701 231.460,205.581 231.647 C 205.460 231.833,203.480 232.106,201.181 232.253 C 198.881 232.400,196.902 232.670,196.781 232.852 C 196.476 233.316,182.739 233.345,182.441 232.882 C 182.309 232.676,181.776 232.375,181.257 232.213 C 179.941 231.802,178.800 230.749,178.800 229.944 C 178.800 229.572,178.616 229.205,178.391 229.130 C 178.165 229.055,177.868 228.275,177.729 227.397 C 177.590 226.519,177.279 225.665,177.038 225.500 C 176.722 225.283,176.724 225.117,177.046 224.900 C 177.291 224.735,177.619 223.565,177.775 222.300 C 177.930 221.035,178.205 220.000,178.385 220.000 C 178.566 220.000,178.829 219.538,178.971 218.972 C 179.236 217.915,181.326 215.600,182.014 215.600 C 182.226 215.600,182.400 215.420,182.400 215.200 C 182.400 214.980,182.124 214.800,181.787 214.800 C 181.451 214.800,181.074 214.537,180.950 214.215 C 180.827 213.894,180.401 213.527,180.003 213.401 C 179.605 213.275,179.157 212.685,179.008 212.090 C 178.859 211.495,178.577 210.909,178.382 210.789 C 178.187 210.668,177.904 209.496,177.753 208.185 C 177.602 206.873,177.281 205.665,177.039 205.500 C 176.721 205.283,176.721 205.117,177.038 204.900 C 177.279 204.735,177.588 203.895,177.724 203.032 C 177.860 202.170,178.134 201.360,178.332 201.232 C 178.530 201.105,178.816 200.604,178.967 200.120 C 179.117 199.637,179.637 199.117,180.120 198.967 C 180.604 198.816,181.113 198.517,181.251 198.303 C 181.388 198.088,182.333 197.819,183.351 197.704 C 184.368 197.590,185.203 197.294,185.206 197.048 C 185.211 196.725,185.294 196.723,185.506 197.039 C 185.694 197.320,188.757 197.572,193.975 197.737 M145.276 200.100 C 145.234 201.365,145.020 202.400,144.800 202.400 C 144.571 202.400,144.400 203.600,144.400 205.200 C 144.400 206.740,144.571 208.000,144.780 208.000 C 144.989 208.000,145.225 209.035,145.304 210.300 L 145.449 212.600 145.524 210.300 C 145.566 209.035,145.780 208.000,146.000 208.000 C 146.229 208.000,146.400 206.800,146.400 205.200 C 146.400 203.660,146.229 202.400,146.020 202.400 C 145.811 202.400,145.575 201.365,145.496 200.100 L 145.351 197.800 145.276 200.100 M264.643 201.600 C 264.340 205.609,264.727 212.400,265.257 212.400 C 265.446 212.400,265.600 211.410,265.600 210.200 C 265.600 208.990,265.780 208.000,266.000 208.000 C 266.229 208.000,266.400 206.800,266.400 205.200 C 266.400 203.600,266.229 202.400,266.000 202.400 C 265.780 202.400,265.600 201.410,265.600 200.200 C 265.600 196.691,264.941 197.655,264.643 201.600 " stroke="none" fill="#cccccc" fill-rule="evenodd"></path><path id="path1" d="M142.900 181.059 C 142.405 181.167,142.000 181.400,142.000 181.577 C 142.000 181.753,141.280 182.013,140.400 182.154 C 139.520 182.294,138.800 182.587,138.800 182.805 C 138.800 183.022,138.544 183.200,138.231 183.200 C 137.918 183.200,137.122 183.739,136.463 184.398 C 135.805 185.057,135.206 185.423,135.133 185.212 C 135.060 185.001,133.920 184.704,132.600 184.553 C 131.280 184.402,130.086 184.104,129.946 183.890 C 129.571 183.316,123.640 183.296,123.284 183.868 C 123.123 184.126,122.499 184.460,121.896 184.612 C 121.202 184.786,120.800 185.155,120.800 185.616 C 120.800 186.018,120.458 186.455,120.040 186.587 C 119.622 186.720,119.169 187.269,119.034 187.808 C 118.885 188.402,118.402 188.885,117.808 189.034 C 117.269 189.169,116.720 189.622,116.587 190.040 C 116.455 190.458,116.088 190.800,115.773 190.800 C 115.458 190.800,115.200 191.070,115.200 191.400 C 115.200 191.730,115.020 192.000,114.800 192.000 C 114.580 192.000,114.400 192.270,114.400 192.600 C 114.400 192.930,114.228 193.200,114.018 193.200 C 113.808 193.200,113.517 193.834,113.372 194.609 C 113.047 196.339,115.053 198.533,117.354 198.965 C 118.232 199.130,118.846 199.513,118.998 199.993 C 119.132 200.415,119.583 200.867,120.000 201.000 C 120.417 201.133,120.883 201.637,121.033 202.120 C 121.184 202.604,121.436 203.090,121.592 203.200 C 122.250 203.663,122.424 205.600,121.808 205.600 C 121.473 205.600,121.200 205.760,121.200 205.957 C 121.200 206.153,120.707 206.437,120.104 206.588 C 119.501 206.740,118.878 207.074,118.718 207.332 C 118.298 208.011,109.127 207.982,108.900 207.300 C 108.808 207.025,108.293 206.800,107.754 206.800 C 107.216 206.800,106.671 206.530,106.545 206.200 C 106.157 205.190,104.400 205.986,104.400 207.171 C 104.400 207.407,104.222 207.600,104.005 207.600 C 103.787 207.600,103.494 208.320,103.354 209.200 C 103.213 210.080,102.952 210.800,102.773 210.800 C 102.595 210.800,102.323 211.655,102.169 212.700 C 102.015 213.745,101.698 214.723,101.465 214.873 C 100.876 215.252,105.025 219.200,106.013 219.200 C 106.446 219.200,106.800 219.380,106.800 219.600 C 106.800 219.820,107.340 220.000,108.000 220.000 C 108.660 220.000,109.200 220.161,109.200 220.358 C 109.200 220.555,110.640 220.844,112.400 221.000 C 114.160 221.156,115.600 221.422,115.600 221.591 C 115.600 221.759,116.320 222.013,117.200 222.154 C 118.080 222.294,118.800 222.573,118.800 222.773 C 118.800 222.973,119.340 223.255,120.000 223.400 C 120.660 223.545,121.200 223.810,121.200 223.988 C 121.200 224.167,121.638 224.423,122.173 224.558 C 122.709 224.692,123.258 225.152,123.394 225.580 C 123.530 226.009,123.992 226.470,124.420 226.606 C 124.849 226.743,125.200 227.022,125.200 227.227 C 125.200 227.432,125.740 227.600,126.400 227.600 C 127.060 227.600,127.600 227.431,127.600 227.224 C 127.600 227.018,128.860 226.724,130.400 226.573 C 131.940 226.421,133.200 226.140,133.200 225.948 C 133.200 225.757,133.650 225.600,134.200 225.600 C 134.750 225.600,135.200 225.407,135.200 225.172 C 135.200 224.936,135.795 225.374,136.521 226.144 C 137.248 226.915,138.328 227.667,138.921 227.816 C 139.515 227.965,140.000 228.227,140.000 228.398 C 140.000 228.569,140.810 228.831,141.800 228.979 C 142.790 229.128,143.600 229.418,143.600 229.625 C 143.600 229.831,144.320 230.000,145.200 230.000 C 146.080 230.000,146.800 229.837,146.800 229.638 C 146.800 229.438,147.700 229.151,148.800 229.000 C 149.900 228.849,150.800 228.581,150.800 228.406 C 150.800 228.230,151.259 227.972,151.819 227.831 C 152.380 227.690,153.445 226.951,154.186 226.188 C 154.927 225.424,155.688 224.800,155.878 224.800 C 156.312 224.800,157.368 223.581,157.713 222.682 C 157.857 222.307,158.152 222.000,158.369 222.000 C 158.586 222.000,158.882 221.370,159.026 220.600 C 159.171 219.830,159.449 219.200,159.645 219.200 C 159.840 219.200,160.000 218.855,160.000 218.433 C 160.000 218.012,160.225 217.592,160.500 217.500 C 160.885 217.372,161.000 214.591,161.000 205.400 C 161.000 196.209,160.885 193.429,160.500 193.300 C 160.225 193.208,160.000 192.698,160.000 192.167 C 160.000 191.635,159.834 191.200,159.632 191.200 C 159.429 191.200,159.145 190.660,159.000 190.000 C 158.855 189.340,158.583 188.800,158.395 188.800 C 158.207 188.800,157.934 188.422,157.787 187.961 C 157.528 187.143,156.218 185.600,155.783 185.600 C 155.514 185.600,154.556 184.825,153.683 183.900 C 153.320 183.515,152.792 183.200,152.511 183.200 C 152.230 183.200,152.000 183.028,152.000 182.818 C 152.000 182.608,151.325 182.312,150.500 182.160 C 149.675 182.009,148.900 181.731,148.778 181.544 C 148.512 181.138,144.179 180.780,142.900 181.059 M262.900 181.059 C 262.405 181.167,262.000 181.400,262.000 181.577 C 262.000 181.753,261.280 182.013,260.400 182.154 C 259.520 182.294,258.800 182.587,258.800 182.805 C 258.800 183.022,258.544 183.200,258.231 183.200 C 257.918 183.200,257.092 183.770,256.395 184.466 C 255.519 185.342,255.038 185.585,254.834 185.256 C 254.672 184.993,253.563 184.666,252.370 184.528 C 251.176 184.390,250.086 184.103,249.946 183.890 C 249.570 183.316,243.639 183.297,243.284 183.868 C 243.123 184.126,242.499 184.460,241.896 184.612 C 241.202 184.786,240.800 185.155,240.800 185.616 C 240.800 186.018,240.458 186.455,240.040 186.587 C 239.622 186.720,239.169 187.269,239.034 187.808 C 238.885 188.402,238.402 188.885,237.808 189.034 C 237.269 189.169,236.720 189.622,236.587 190.040 C 236.455 190.458,236.013 190.800,235.605 190.800 C 235.106 190.800,234.777 191.193,234.600 192.000 C 234.455 192.660,234.179 193.200,233.986 193.200 C 233.794 193.200,233.517 193.836,233.371 194.614 C 233.039 196.385,234.967 198.517,237.296 198.954 C 238.226 199.129,238.843 199.505,238.998 199.993 C 239.132 200.415,239.583 200.867,240.000 201.000 C 240.417 201.133,240.883 201.637,241.033 202.120 C 241.184 202.604,241.436 203.090,241.592 203.200 C 242.250 203.663,242.424 205.600,241.808 205.600 C 241.473 205.600,241.200 205.760,241.200 205.957 C 241.200 206.153,240.707 206.437,240.104 206.588 C 239.501 206.740,238.878 207.074,238.718 207.332 C 238.298 208.011,229.127 207.982,228.900 207.300 C 228.808 207.025,228.293 206.800,227.754 206.800 C 227.216 206.800,226.671 206.530,226.545 206.200 C 226.167 205.217,224.844 205.484,224.564 206.600 C 224.426 207.150,224.155 207.600,223.961 207.600 C 223.768 207.600,223.494 208.320,223.354 209.200 C 223.213 210.080,222.952 210.800,222.773 210.800 C 222.595 210.800,222.323 211.655,222.169 212.700 C 222.015 213.745,221.707 214.717,221.484 214.861 C 220.877 215.252,224.938 219.200,225.947 219.200 C 226.416 219.200,226.800 219.380,226.800 219.600 C 226.800 219.820,227.340 220.000,228.000 220.000 C 228.660 220.000,229.200 220.161,229.200 220.358 C 229.200 220.555,230.640 220.844,232.400 221.000 C 234.160 221.156,235.600 221.422,235.600 221.591 C 235.600 221.759,236.320 222.013,237.200 222.154 C 238.080 222.294,238.800 222.573,238.800 222.773 C 238.800 222.973,239.340 223.255,240.000 223.400 C 240.660 223.545,241.200 223.810,241.200 223.988 C 241.200 224.167,241.650 224.426,242.200 224.564 C 242.750 224.702,243.200 224.966,243.200 225.149 C 243.200 226.032,245.236 227.600,246.381 227.600 C 247.051 227.600,247.600 227.431,247.600 227.224 C 247.600 227.018,248.860 226.724,250.400 226.573 C 251.940 226.421,253.200 226.140,253.200 225.948 C 253.200 225.757,253.545 225.600,253.967 225.600 C 254.388 225.600,254.808 225.375,254.900 225.101 C 255.002 224.793,255.601 225.168,256.455 226.073 C 257.218 226.883,258.328 227.667,258.921 227.816 C 259.515 227.965,260.000 228.227,260.000 228.398 C 260.000 228.569,260.810 228.831,261.800 228.979 C 262.790 229.128,263.600 229.418,263.600 229.625 C 263.600 229.831,264.320 230.000,265.200 230.000 C 266.080 230.000,266.800 229.837,266.800 229.638 C 266.800 229.438,267.700 229.151,268.800 229.000 C 269.900 228.849,270.800 228.581,270.800 228.406 C 270.800 228.230,271.265 227.970,271.834 227.827 C 272.853 227.572,274.800 225.808,274.800 225.142 C 274.800 224.954,275.120 224.800,275.511 224.800 C 276.261 224.800,277.274 223.826,277.713 222.682 C 277.857 222.307,278.152 222.000,278.369 222.000 C 278.586 222.000,278.882 221.370,279.026 220.600 C 279.171 219.830,279.449 219.200,279.645 219.200 C 279.840 219.200,280.000 218.855,280.000 218.433 C 280.000 218.012,280.225 217.592,280.500 217.500 C 280.885 217.372,281.000 214.591,281.000 205.400 C 281.000 196.209,280.885 193.429,280.500 193.300 C 280.225 193.208,280.000 192.698,280.000 192.167 C 280.000 191.635,279.834 191.200,279.632 191.200 C 279.429 191.200,279.145 190.660,279.000 190.000 C 278.855 189.340,278.583 188.800,278.395 188.800 C 278.207 188.800,277.934 188.422,277.787 187.961 C 277.463 186.937,276.182 185.606,275.500 185.583 C 275.225 185.574,274.558 185.034,274.019 184.383 C 273.479 183.732,272.804 183.200,272.519 183.200 C 272.233 183.200,272.000 183.028,272.000 182.818 C 272.000 182.608,271.325 182.312,270.500 182.160 C 269.675 182.009,268.900 181.731,268.778 181.544 C 268.512 181.138,264.179 180.780,262.900 181.059 M147.019 192.258 C 147.559 192.841,148.000 193.546,148.000 193.825 C 148.000 194.105,148.209 194.403,148.464 194.488 C 148.801 194.600,148.929 197.591,148.929 205.400 C 148.929 213.209,148.801 216.200,148.464 216.312 C 148.209 216.397,148.000 216.651,148.000 216.877 C 148.000 217.622,146.216 219.186,145.358 219.193 C 143.170 219.211,142.211 217.387,142.064 212.927 C 141.989 210.657,141.764 208.800,141.564 208.800 C 141.364 208.800,141.200 207.270,141.200 205.400 C 141.200 203.530,141.364 202.000,141.564 202.000 C 141.764 202.000,141.989 200.144,142.064 197.875 C 142.254 192.124,144.517 189.559,147.019 192.258 M267.019 192.258 C 267.559 192.841,268.000 193.546,268.000 193.825 C 268.000 194.105,268.209 194.403,268.464 194.488 C 268.801 194.600,268.929 197.591,268.929 205.400 C 268.929 213.209,268.801 216.200,268.464 216.312 C 268.209 216.397,268.000 216.651,268.000 216.877 C 268.000 217.622,266.216 219.186,265.358 219.193 C 263.170 219.211,262.211 217.387,262.064 212.927 C 261.989 210.657,261.764 208.800,261.564 208.800 C 261.364 208.800,261.200 207.270,261.200 205.400 C 261.200 203.530,261.364 202.000,261.564 202.000 C 261.764 202.000,261.989 200.144,262.064 197.875 C 262.254 192.124,264.517 189.559,267.019 192.258 M184.284 204.093 C 182.764 205.400,184.172 208.166,186.780 208.994 C 187.231 209.137,187.600 209.409,187.600 209.598 C 187.600 209.788,187.915 210.258,188.300 210.643 C 190.389 212.734,188.611 222.000,186.120 222.000 C 185.932 222.000,185.488 222.338,185.134 222.752 C 184.780 223.165,184.314 223.570,184.098 223.652 C 183.338 223.939,183.141 225.516,183.797 226.068 C 184.144 226.361,184.679 226.825,184.985 227.100 C 185.635 227.682,187.600 227.776,187.600 227.224 C 187.600 227.018,188.860 226.724,190.400 226.573 C 191.940 226.421,193.200 226.140,193.200 225.948 C 193.200 225.757,193.650 225.600,194.200 225.600 C 194.750 225.600,195.200 225.420,195.200 225.200 C 195.200 224.980,195.534 224.800,195.942 224.800 C 197.312 224.800,198.888 222.892,199.104 220.970 C 199.214 219.997,199.461 219.200,199.652 219.200 C 199.843 219.200,200.000 217.400,200.000 215.200 C 200.000 213.000,199.844 211.200,199.653 211.200 C 199.462 211.200,199.209 210.484,199.092 209.608 C 198.867 207.932,196.989 205.600,195.864 205.600 C 195.536 205.600,195.207 205.426,195.133 205.214 C 195.060 205.001,193.920 204.704,192.600 204.553 C 191.280 204.402,190.110 204.144,190.000 203.980 C 189.386 203.063,185.391 203.142,184.284 204.093 " stroke="none" fill="#b0b0b0" fill-rule="evenodd"></path><path id="path2" d="M139.405 177.870 C 138.528 177.974,137.697 178.244,137.558 178.469 C 137.230 178.998,127.849 178.924,127.667 178.390 C 127.502 177.907,124.400 177.867,124.400 178.348 C 124.400 178.540,123.140 178.821,121.600 178.973 C 120.060 179.124,118.800 179.418,118.800 179.624 C 118.800 179.831,118.350 180.000,117.800 180.000 C 117.250 180.000,116.800 180.160,116.800 180.357 C 116.800 180.553,116.326 180.832,115.748 180.977 C 114.388 181.319,111.319 184.388,110.977 185.748 C 110.832 186.326,110.553 186.800,110.357 186.800 C 110.160 186.800,110.000 187.250,110.000 187.800 C 110.000 188.350,109.831 188.800,109.624 188.800 C 109.418 188.800,109.124 190.060,108.973 191.600 C 108.821 193.140,108.563 194.400,108.401 194.400 C 108.238 194.400,108.003 195.028,107.878 195.795 C 107.614 197.426,105.889 199.200,104.569 199.200 C 104.021 199.200,103.557 199.505,103.413 199.960 C 103.280 200.378,102.731 200.831,102.192 200.966 C 101.598 201.115,101.115 201.598,100.966 202.192 C 100.831 202.731,100.401 203.273,100.011 203.397 C 99.309 203.619,98.814 205.373,98.804 207.667 C 98.802 208.253,98.620 208.793,98.400 208.867 C 97.825 209.058,97.683 217.154,98.247 217.515 C 98.492 217.672,98.832 218.250,99.003 218.800 C 99.356 219.932,100.654 221.200,101.461 221.200 C 101.758 221.200,102.000 221.372,102.000 221.582 C 102.000 221.792,102.675 222.088,103.500 222.240 C 104.325 222.391,105.098 222.665,105.217 222.847 C 105.336 223.029,107.721 223.301,110.517 223.450 C 113.313 223.600,115.600 223.855,115.600 224.018 C 115.600 224.180,116.072 224.432,116.648 224.576 C 118.092 224.939,118.631 225.573,118.953 227.287 C 119.128 228.225,119.504 228.843,119.993 228.998 C 120.415 229.132,120.867 229.583,121.000 230.000 C 121.133 230.417,121.637 230.883,122.120 231.033 C 122.604 231.184,123.128 231.509,123.286 231.754 C 123.664 232.346,134.865 232.141,135.240 231.536 C 135.424 231.238,135.548 231.242,135.652 231.551 C 135.733 231.794,136.925 232.110,138.300 232.253 C 139.675 232.397,140.800 232.668,140.800 232.857 C 140.800 233.046,142.870 233.200,145.400 233.200 C 147.930 233.200,150.000 233.046,150.000 232.857 C 150.000 232.668,151.115 232.397,152.478 232.255 C 153.840 232.113,155.055 231.845,155.178 231.660 C 155.300 231.475,155.895 231.202,156.500 231.054 C 157.105 230.906,157.600 230.608,157.600 230.392 C 157.600 230.177,157.780 230.000,158.000 230.000 C 158.424 230.000,160.000 228.559,160.000 228.171 C 160.000 228.046,160.270 227.673,160.600 227.343 C 160.930 227.013,161.200 226.321,161.200 225.805 C 161.200 225.289,161.384 224.805,161.609 224.730 C 161.835 224.655,162.132 223.875,162.271 222.997 C 162.410 222.119,162.721 221.272,162.962 221.115 C 163.267 220.916,163.400 216.086,163.400 205.200 C 163.400 194.314,163.267 189.484,162.962 189.285 C 162.721 189.128,162.410 188.281,162.271 187.403 C 162.132 186.525,161.835 185.745,161.609 185.670 C 161.384 185.595,161.200 185.093,161.200 184.554 C 161.200 184.016,160.930 183.471,160.600 183.345 C 160.270 183.218,160.000 182.956,160.000 182.762 C 160.000 182.234,158.684 180.800,158.199 180.800 C 157.967 180.800,157.525 180.450,157.217 180.023 C 156.904 179.590,155.936 179.126,155.028 178.974 C 154.133 178.824,153.287 178.524,153.149 178.307 C 152.883 177.888,142.126 177.546,139.405 177.870 M259.405 177.870 C 258.528 177.974,257.692 178.251,257.547 178.486 C 257.212 179.028,247.855 178.935,247.667 178.388 C 247.501 177.906,244.400 177.869,244.400 178.348 C 244.400 178.540,243.140 178.821,241.600 178.973 C 240.060 179.124,238.800 179.418,238.800 179.624 C 238.800 179.831,238.350 180.000,237.800 180.000 C 237.250 180.000,236.800 180.160,236.800 180.357 C 236.800 180.553,236.326 180.832,235.748 180.977 C 234.388 181.319,231.319 184.388,230.977 185.748 C 230.832 186.326,230.553 186.800,230.357 186.800 C 230.160 186.800,230.000 187.250,230.000 187.800 C 230.000 188.350,229.831 188.800,229.624 188.800 C 229.418 188.800,229.124 190.060,228.973 191.600 C 228.821 193.140,228.563 194.400,228.401 194.400 C 228.238 194.400,228.003 195.028,227.878 195.795 C 227.614 197.426,225.889 199.200,224.569 199.200 C 224.021 199.200,223.557 199.505,223.413 199.960 C 223.280 200.378,222.731 200.831,222.192 200.966 C 221.598 201.115,221.115 201.598,220.966 202.192 C 220.831 202.731,220.401 203.273,220.011 203.397 C 219.309 203.619,218.814 205.373,218.804 207.667 C 218.802 208.253,218.620 208.793,218.400 208.867 C 217.825 209.058,217.683 217.154,218.247 217.515 C 218.492 217.672,218.832 218.250,219.003 218.800 C 219.356 219.932,220.654 221.200,221.461 221.200 C 221.758 221.200,222.000 221.366,222.000 221.568 C 222.000 221.771,222.585 222.063,223.300 222.218 C 224.015 222.374,224.695 222.649,224.812 222.831 C 224.928 223.013,227.403 223.287,230.312 223.440 C 233.220 223.594,235.600 223.853,235.600 224.016 C 235.600 224.180,236.072 224.432,236.648 224.576 C 238.092 224.939,238.631 225.573,238.953 227.287 C 239.128 228.225,239.504 228.843,239.993 228.998 C 240.415 229.132,240.867 229.583,241.000 230.000 C 241.133 230.417,241.637 230.883,242.120 231.033 C 242.604 231.184,243.129 231.509,243.286 231.754 C 243.691 232.384,254.470 232.126,254.892 231.476 C 255.128 231.111,255.276 231.117,255.522 231.498 C 255.700 231.772,256.960 232.113,258.322 232.255 C 259.685 232.397,260.800 232.668,260.800 232.857 C 260.800 233.046,262.870 233.200,265.400 233.200 C 267.930 233.200,270.000 233.045,270.000 232.856 C 270.000 232.667,271.032 232.405,272.294 232.275 C 273.555 232.145,274.650 231.850,274.727 231.619 C 274.804 231.389,275.289 231.200,275.805 231.200 C 276.321 231.200,277.013 230.930,277.343 230.600 C 277.673 230.270,278.046 230.000,278.171 230.000 C 278.469 230.000,280.000 228.469,280.000 228.171 C 280.000 228.046,280.270 227.673,280.600 227.343 C 280.930 227.013,281.200 226.321,281.200 225.805 C 281.200 225.289,281.384 224.805,281.609 224.730 C 281.835 224.655,282.132 223.875,282.271 222.997 C 282.410 222.119,282.721 221.272,282.962 221.115 C 283.267 220.916,283.400 216.086,283.400 205.200 C 283.400 194.314,283.267 189.484,282.962 189.285 C 282.721 189.128,282.410 188.281,282.271 187.403 C 282.132 186.525,281.835 185.745,281.609 185.670 C 281.384 185.595,281.200 185.093,281.200 184.554 C 281.200 184.016,280.930 183.471,280.600 183.345 C 280.270 183.218,280.000 182.956,280.000 182.762 C 280.000 182.267,278.698 180.800,278.258 180.800 C 278.058 180.800,277.603 180.467,277.247 180.060 C 276.891 179.654,275.880 179.187,275.001 179.024 C 274.121 178.860,273.289 178.543,273.150 178.320 C 272.884 177.888,262.190 177.538,259.405 177.870 M148.778 181.544 C 148.900 181.731,149.675 182.009,150.500 182.160 C 151.325 182.312,152.000 182.608,152.000 182.818 C 152.000 183.028,152.230 183.200,152.511 183.200 C 152.792 183.200,153.320 183.515,153.683 183.900 C 154.556 184.825,155.514 185.600,155.783 185.600 C 156.218 185.600,157.528 187.143,157.787 187.961 C 157.934 188.422,158.207 188.800,158.395 188.800 C 158.583 188.800,158.855 189.340,159.000 190.000 C 159.145 190.660,159.429 191.200,159.632 191.200 C 159.834 191.200,160.000 191.635,160.000 192.167 C 160.000 192.698,160.225 193.208,160.500 193.300 C 160.885 193.429,161.000 196.209,161.000 205.400 C 161.000 214.591,160.885 217.372,160.500 217.500 C 160.225 217.592,160.000 218.012,160.000 218.433 C 160.000 218.855,159.840 219.200,159.645 219.200 C 159.449 219.200,159.171 219.830,159.026 220.600 C 158.882 221.370,158.586 222.000,158.369 222.000 C 158.152 222.000,157.857 222.307,157.713 222.682 C 157.368 223.581,156.312 224.800,155.878 224.800 C 155.688 224.800,154.927 225.424,154.186 226.188 C 153.445 226.951,152.380 227.690,151.819 227.831 C 151.259 227.972,150.800 228.230,150.800 228.406 C 150.800 228.581,149.900 228.849,148.800 229.000 C 147.700 229.151,146.800 229.438,146.800 229.638 C 146.800 229.837,146.080 230.000,145.200 230.000 C 144.320 230.000,143.600 229.831,143.600 229.625 C 143.600 229.418,142.790 229.128,141.800 228.979 C 140.810 228.831,140.000 228.569,140.000 228.398 C 140.000 228.227,139.515 227.965,138.921 227.816 C 138.328 227.667,137.248 226.915,136.521 226.144 C 135.795 225.374,135.200 224.936,135.200 225.172 C 135.200 225.407,134.750 225.600,134.200 225.600 C 133.650 225.600,133.200 225.757,133.200 225.948 C 133.200 226.140,131.940 226.421,130.400 226.573 C 128.860 226.724,127.600 227.018,127.600 227.224 C 127.600 227.431,127.060 227.600,126.400 227.600 C 125.740 227.600,125.200 227.432,125.200 227.227 C 125.200 227.022,124.849 226.743,124.420 226.606 C 123.992 226.470,123.530 226.009,123.394 225.580 C 123.258 225.152,122.709 224.692,122.173 224.558 C 121.638 224.423,121.200 224.167,121.200 223.988 C 121.200 223.810,120.660 223.545,120.000 223.400 C 119.340 223.255,118.800 222.973,118.800 222.773 C 118.800 222.573,118.080 222.294,117.200 222.154 C 116.320 222.013,115.600 221.759,115.600 221.591 C 115.600 221.422,114.160 221.156,112.400 221.000 C 110.640 220.844,109.200 220.555,109.200 220.358 C 109.200 220.161,108.660 220.000,108.000 220.000 C 107.340 220.000,106.800 219.820,106.800 219.600 C 106.800 219.380,106.446 219.200,106.013 219.200 C 105.025 219.200,100.876 215.252,101.465 214.873 C 101.698 214.723,102.015 213.745,102.169 212.700 C 102.323 211.655,102.595 210.800,102.773 210.800 C 102.952 210.800,103.213 210.080,103.354 209.200 C 103.494 208.320,103.787 207.600,104.005 207.600 C 104.222 207.600,104.400 207.407,104.400 207.171 C 104.400 205.986,106.157 205.190,106.545 206.200 C 106.671 206.530,107.216 206.800,107.754 206.800 C 108.293 206.800,108.808 207.025,108.900 207.300 C 109.127 207.982,118.298 208.011,118.718 207.332 C 118.878 207.074,119.501 206.740,120.104 206.588 C 120.707 206.437,121.200 206.153,121.200 205.957 C 121.200 205.760,121.473 205.600,121.808 205.600 C 122.424 205.600,122.250 203.663,121.592 203.200 C 121.436 203.090,121.184 202.604,121.033 202.120 C 120.883 201.637,120.417 201.133,120.000 201.000 C 119.583 200.867,119.132 200.415,118.998 199.993 C 118.846 199.513,118.232 199.130,117.354 198.965 C 115.053 198.533,113.047 196.339,113.372 194.609 C 113.517 193.834,113.808 193.200,114.018 193.200 C 114.228 193.200,114.400 192.930,114.400 192.600 C 114.400 192.270,114.580 192.000,114.800 192.000 C 115.020 192.000,115.200 191.730,115.200 191.400 C 115.200 191.070,115.458 190.800,115.773 190.800 C 116.088 190.800,116.455 190.458,116.587 190.040 C 116.720 189.622,117.269 189.169,117.808 189.034 C 118.402 188.885,118.885 188.402,119.034 187.808 C 119.169 187.269,119.622 186.720,120.040 186.587 C 120.458 186.455,120.800 186.018,120.800 185.616 C 120.800 185.155,121.202 184.786,121.896 184.612 C 122.499 184.460,123.123 184.126,123.284 183.868 C 123.640 183.296,129.571 183.316,129.946 183.890 C 130.086 184.104,131.280 184.402,132.600 184.553 C 133.920 184.704,135.060 185.001,135.133 185.212 C 135.206 185.423,135.805 185.057,136.463 184.398 C 137.122 183.739,137.918 183.200,138.231 183.200 C 138.544 183.200,138.800 183.022,138.800 182.805 C 138.800 182.587,139.520 182.294,140.400 182.154 C 141.280 182.013,142.000 181.753,142.000 181.577 C 142.000 180.803,148.274 180.773,148.778 181.544 M268.778 181.544 C 268.900 181.731,269.675 182.009,270.500 182.160 C 271.325 182.312,272.000 182.608,272.000 182.818 C 272.000 183.028,272.233 183.200,272.519 183.200 C 272.804 183.200,273.479 183.732,274.019 184.383 C 274.558 185.034,275.225 185.574,275.500 185.583 C 276.182 185.606,277.463 186.937,277.787 187.961 C 277.934 188.422,278.207 188.800,278.395 188.800 C 278.583 188.800,278.855 189.340,279.000 190.000 C 279.145 190.660,279.429 191.200,279.632 191.200 C 279.834 191.200,280.000 191.635,280.000 192.167 C 280.000 192.698,280.225 193.208,280.500 193.300 C 280.885 193.429,281.000 196.209,281.000 205.400 C 281.000 214.591,280.885 217.372,280.500 217.500 C 280.225 217.592,280.000 218.012,280.000 218.433 C 280.000 218.855,279.840 219.200,279.645 219.200 C 279.449 219.200,279.171 219.830,279.026 220.600 C 278.882 221.370,278.586 222.000,278.369 222.000 C 278.152 222.000,277.857 222.307,277.713 222.682 C 277.274 223.826,276.261 224.800,275.511 224.800 C 275.120 224.800,274.800 224.954,274.800 225.142 C 274.800 225.808,272.853 227.572,271.834 227.827 C 271.265 227.970,270.800 228.230,270.800 228.406 C 270.800 228.581,269.900 228.849,268.800 229.000 C 267.700 229.151,266.800 229.438,266.800 229.638 C 266.800 229.837,266.080 230.000,265.200 230.000 C 264.320 230.000,263.600 229.831,263.600 229.625 C 263.600 229.418,262.790 229.128,261.800 228.979 C 260.810 228.831,260.000 228.569,260.000 228.398 C 260.000 228.227,259.515 227.965,258.921 227.816 C 258.328 227.667,257.218 226.883,256.455 226.073 C 255.601 225.168,255.002 224.793,254.900 225.101 C 254.808 225.375,254.388 225.600,253.967 225.600 C 253.545 225.600,253.200 225.757,253.200 225.948 C 253.200 226.140,251.940 226.421,250.400 226.573 C 248.860 226.724,247.600 227.018,247.600 227.224 C 247.600 227.431,247.051 227.600,246.381 227.600 C 245.236 227.600,243.200 226.032,243.200 225.149 C 243.200 224.966,242.750 224.702,242.200 224.564 C 241.650 224.426,241.200 224.167,241.200 223.988 C 241.200 223.810,240.660 223.545,240.000 223.400 C 239.340 223.255,238.800 222.973,238.800 222.773 C 238.800 222.573,238.080 222.294,237.200 222.154 C 236.320 222.013,235.600 221.759,235.600 221.591 C 235.600 221.422,234.160 221.156,232.400 221.000 C 230.640 220.844,229.200 220.555,229.200 220.358 C 229.200 220.161,228.660 220.000,228.000 220.000 C 227.340 220.000,226.800 219.820,226.800 219.600 C 226.800 219.380,226.416 219.200,225.947 219.200 C 224.938 219.200,220.877 215.252,221.484 214.861 C 221.707 214.717,222.015 213.745,222.169 212.700 C 222.323 211.655,222.595 210.800,222.773 210.800 C 222.952 210.800,223.213 210.080,223.354 209.200 C 223.494 208.320,223.768 207.600,223.961 207.600 C 224.155 207.600,224.426 207.150,224.564 206.600 C 224.844 205.484,226.167 205.217,226.545 206.200 C 226.671 206.530,227.216 206.800,227.754 206.800 C 228.293 206.800,228.808 207.025,228.900 207.300 C 229.127 207.982,238.298 208.011,238.718 207.332 C 238.878 207.074,239.501 206.740,240.104 206.588 C 240.707 206.437,241.200 206.153,241.200 205.957 C 241.200 205.760,241.473 205.600,241.808 205.600 C 242.424 205.600,242.250 203.663,241.592 203.200 C 241.436 203.090,241.184 202.604,241.033 202.120 C 240.883 201.637,240.417 201.133,240.000 201.000 C 239.583 200.867,239.132 200.415,238.998 199.993 C 238.843 199.505,238.226 199.129,237.296 198.954 C 234.967 198.517,233.039 196.385,233.371 194.614 C 233.517 193.836,233.794 193.200,233.986 193.200 C 234.179 193.200,234.455 192.660,234.600 192.000 C 234.777 191.193,235.106 190.800,235.605 190.800 C 236.013 190.800,236.455 190.458,236.587 190.040 C 236.720 189.622,237.269 189.169,237.808 189.034 C 238.402 188.885,238.885 188.402,239.034 187.808 C 239.169 187.269,239.622 186.720,240.040 186.587 C 240.458 186.455,240.800 186.018,240.800 185.616 C 240.800 185.155,241.202 184.786,241.896 184.612 C 242.499 184.460,243.123 184.126,243.284 183.868 C 243.639 183.297,249.570 183.316,249.946 183.890 C 250.086 184.103,251.176 184.390,252.370 184.528 C 253.563 184.666,254.672 184.993,254.834 185.256 C 255.038 185.585,255.519 185.342,256.395 184.466 C 257.092 183.770,257.918 183.200,258.231 183.200 C 258.544 183.200,258.800 183.022,258.800 182.805 C 258.800 182.587,259.520 182.294,260.400 182.154 C 261.280 182.013,262.000 181.753,262.000 181.577 C 262.000 180.803,268.274 180.773,268.778 181.544 M143.400 192.494 C 142.250 193.698,142.194 193.921,142.064 197.875 C 141.989 200.144,141.764 202.000,141.564 202.000 C 141.364 202.000,141.200 203.530,141.200 205.400 C 141.200 207.270,141.364 208.800,141.564 208.800 C 141.764 208.800,141.989 210.657,142.064 212.927 C 142.211 217.387,143.170 219.211,145.358 219.193 C 146.216 219.186,148.000 217.622,148.000 216.877 C 148.000 216.651,148.209 216.397,148.464 216.312 C 148.801 216.200,148.929 213.209,148.929 205.400 C 148.929 197.591,148.801 194.600,148.464 194.488 C 148.209 194.403,148.000 194.105,148.000 193.825 C 148.000 191.573,145.086 190.730,143.400 192.494 M263.400 192.494 C 262.250 193.698,262.194 193.921,262.064 197.875 C 261.989 200.144,261.764 202.000,261.564 202.000 C 261.364 202.000,261.200 203.530,261.200 205.400 C 261.200 207.270,261.364 208.800,261.564 208.800 C 261.764 208.800,261.989 210.657,262.064 212.927 C 262.211 217.387,263.170 219.211,265.358 219.193 C 266.216 219.186,268.000 217.622,268.000 216.877 C 268.000 216.651,268.209 216.397,268.464 216.312 C 268.801 216.200,268.929 213.209,268.929 205.400 C 268.929 197.591,268.801 194.600,268.464 194.488 C 268.209 194.403,268.000 194.105,268.000 193.825 C 268.000 191.573,265.086 190.730,263.400 192.494 M146.089 198.055 C 146.690 198.426,146.700 211.967,146.100 212.338 C 145.858 212.488,145.586 213.328,145.497 214.205 L 145.334 215.800 145.267 214.100 C 145.230 213.165,145.020 212.400,144.800 212.400 C 144.578 212.400,144.400 211.333,144.400 210.000 C 144.400 208.667,144.222 207.600,144.000 207.600 C 143.780 207.600,143.600 206.610,143.600 205.400 C 143.600 204.190,143.780 203.200,144.000 203.200 C 144.226 203.200,144.400 202.067,144.400 200.600 C 144.400 199.133,144.574 198.000,144.800 198.000 C 145.020 198.000,145.230 197.235,145.267 196.300 L 145.334 194.600 145.497 196.195 C 145.586 197.072,145.853 197.909,146.089 198.055 M265.600 196.367 C 265.600 197.228,265.807 198.002,266.059 198.086 C 266.717 198.306,266.728 212.091,266.070 212.310 C 265.812 212.396,265.600 213.172,265.600 214.033 C 265.600 214.895,265.446 215.600,265.257 215.600 C 264.901 215.600,264.400 211.826,264.400 209.141 C 264.400 208.294,264.220 207.600,264.000 207.600 C 263.780 207.600,263.600 206.610,263.600 205.400 C 263.600 204.190,263.780 203.200,264.000 203.200 C 264.220 203.200,264.400 202.416,264.400 201.459 C 264.400 198.602,264.889 194.800,265.257 194.800 C 265.446 194.800,265.600 195.505,265.600 196.367 M185.200 198.348 C 185.200 198.539,184.584 198.795,183.830 198.918 C 182.130 199.193,179.273 201.935,178.938 203.613 C 178.807 204.266,178.543 204.800,178.350 204.800 C 178.158 204.800,178.000 205.160,178.000 205.600 C 178.000 206.040,178.160 206.400,178.355 206.400 C 178.551 206.400,178.829 207.030,178.974 207.800 C 179.118 208.570,179.408 209.200,179.618 209.200 C 179.828 209.200,180.000 209.560,180.000 210.000 C 180.000 210.440,180.180 210.800,180.400 210.800 C 180.620 210.800,180.803 211.025,180.807 211.300 C 180.815 211.910,182.542 213.600,183.156 213.600 C 183.400 213.600,183.600 213.780,183.600 214.000 C 183.600 214.220,183.949 214.400,184.376 214.400 C 186.119 214.400,185.775 216.185,183.962 216.548 C 182.704 216.799,180.800 218.551,180.800 219.458 C 180.800 219.756,180.620 220.000,180.400 220.000 C 180.180 220.000,180.000 220.270,180.000 220.600 C 180.000 220.930,179.822 221.200,179.605 221.200 C 179.387 221.200,179.094 221.920,178.954 222.800 C 178.813 223.680,178.541 224.400,178.349 224.400 C 178.157 224.400,178.000 224.670,178.000 225.000 C 178.000 225.330,178.157 225.600,178.349 225.600 C 178.541 225.600,178.811 226.308,178.949 227.173 C 179.120 228.243,179.450 228.826,179.980 228.994 C 180.408 229.130,180.867 229.583,181.000 230.000 C 181.133 230.417,181.637 230.883,182.120 231.033 C 182.604 231.184,183.128 231.509,183.286 231.754 C 183.621 232.278,194.847 232.164,195.188 231.633 C 195.305 231.452,196.975 231.174,198.900 231.016 C 200.825 230.858,202.400 230.564,202.400 230.364 C 202.400 230.164,202.940 230.000,203.600 230.000 C 204.260 230.000,204.800 229.820,204.800 229.600 C 204.800 229.380,205.091 229.200,205.447 229.200 C 206.366 229.200,209.200 226.251,209.200 225.295 C 209.200 224.366,206.276 221.200,205.419 221.200 C 205.061 221.200,204.730 220.620,204.560 219.700 C 204.409 218.875,204.113 218.088,203.902 217.952 C 203.392 217.620,203.410 212.765,203.923 212.447 C 204.145 212.310,204.453 211.524,204.608 210.699 C 204.785 209.755,205.112 209.200,205.492 209.200 C 206.376 209.200,209.200 206.226,209.200 205.295 C 209.200 203.821,206.202 201.212,204.192 200.937 C 203.206 200.802,202.400 200.536,202.400 200.346 C 202.400 200.156,201.695 200.000,200.833 200.000 C 199.972 200.000,199.206 199.819,199.132 199.597 C 199.056 199.368,196.533 199.082,193.299 198.935 C 190.165 198.792,187.600 198.524,187.600 198.338 C 187.600 198.152,187.060 198.000,186.400 198.000 C 185.740 198.000,185.200 198.156,185.200 198.348 M190.000 203.980 C 190.110 204.144,191.280 204.402,192.600 204.553 C 193.920 204.704,195.060 205.001,195.133 205.214 C 195.207 205.426,195.536 205.600,195.864 205.600 C 196.989 205.600,198.867 207.932,199.092 209.608 C 199.209 210.484,199.462 211.200,199.653 211.200 C 199.844 211.200,200.000 213.000,200.000 215.200 C 200.000 217.400,199.843 219.200,199.652 219.200 C 199.461 219.200,199.214 219.997,199.104 220.970 C 198.888 222.892,197.312 224.800,195.942 224.800 C 195.534 224.800,195.200 224.980,195.200 225.200 C 195.200 225.420,194.750 225.600,194.200 225.600 C 193.650 225.600,193.200 225.757,193.200 225.948 C 193.200 226.140,191.940 226.421,190.400 226.573 C 188.860 226.724,187.600 227.018,187.600 227.224 C 187.600 227.776,185.635 227.682,184.985 227.100 C 184.679 226.825,184.144 226.361,183.797 226.068 C 183.141 225.516,183.338 223.939,184.098 223.652 C 184.314 223.570,184.780 223.165,185.134 222.752 C 185.488 222.338,185.932 222.000,186.120 222.000 C 188.611 222.000,190.389 212.734,188.300 210.643 C 187.915 210.258,187.600 209.788,187.600 209.598 C 187.600 209.409,187.231 209.137,186.780 208.994 C 184.172 208.166,182.764 205.400,184.284 204.093 C 185.391 203.142,189.386 203.063,190.000 203.980 M115.600 205.200 C 115.600 205.420,115.330 205.600,115.000 205.600 C 114.670 205.600,114.400 205.420,114.400 205.200 C 114.400 204.980,114.670 204.800,115.000 204.800 C 115.330 204.800,115.600 204.980,115.600 205.200 M235.600 205.200 C 235.600 205.420,235.330 205.600,235.000 205.600 C 234.670 205.600,234.400 205.420,234.400 205.200 C 234.400 204.980,234.670 204.800,235.000 204.800 C 235.330 204.800,235.600 204.980,235.600 205.200 " stroke="none" fill="#bcbcbc" fill-rule="evenodd"></path><path id="path3" d="M141.567 176.715 C 139.605 176.778,138.000 177.003,138.000 177.215 C 138.000 177.445,135.506 177.600,131.800 177.600 C 127.110 177.600,125.599 177.478,125.594 177.100 C 125.590 176.754,125.497 176.736,125.294 177.040 C 125.132 177.282,123.207 177.603,121.015 177.754 C 118.823 177.905,116.933 178.185,116.814 178.377 C 116.695 178.569,115.924 178.853,115.099 179.008 C 114.275 179.162,113.600 179.449,113.600 179.645 C 113.600 179.840,113.426 180.000,113.213 180.000 C 112.710 180.000,110.000 182.710,110.000 183.213 C 110.000 183.426,109.828 183.600,109.618 183.600 C 109.408 183.600,109.112 184.275,108.960 185.100 C 108.809 185.925,108.537 186.697,108.356 186.815 C 108.176 186.933,107.905 188.778,107.755 190.915 C 107.605 193.052,107.328 194.800,107.141 194.800 C 106.953 194.800,106.797 195.115,106.793 195.500 C 106.784 196.452,105.081 198.000,104.044 198.000 C 103.580 198.000,103.200 198.160,103.200 198.357 C 103.200 198.553,102.734 198.830,102.166 198.973 C 100.897 199.291,99.399 200.737,98.994 202.034 C 98.828 202.565,98.514 203.115,98.296 203.255 C 98.078 203.395,97.808 204.790,97.696 206.355 C 97.584 207.920,97.337 209.200,97.146 209.200 C 96.956 209.200,96.800 211.090,96.800 213.400 C 96.800 215.710,96.960 217.600,97.155 217.600 C 97.351 217.600,97.633 218.250,97.782 219.043 C 98.053 220.490,99.671 222.400,100.625 222.400 C 100.905 222.400,101.198 222.594,101.277 222.832 C 101.356 223.069,102.901 223.365,104.711 223.489 C 106.520 223.613,108.000 223.869,108.000 224.057 C 108.000 224.246,109.710 224.400,111.800 224.400 C 117.314 224.400,116.460 223.768,110.517 223.450 C 107.721 223.301,105.336 223.029,105.217 222.847 C 105.098 222.665,104.325 222.391,103.500 222.240 C 102.675 222.088,102.000 221.792,102.000 221.582 C 102.000 221.372,101.758 221.200,101.461 221.200 C 100.654 221.200,99.356 219.932,99.003 218.800 C 98.832 218.250,98.492 217.672,98.247 217.515 C 97.683 217.154,97.825 209.058,98.400 208.867 C 98.620 208.793,98.802 208.253,98.804 207.667 C 98.814 205.373,99.309 203.619,100.011 203.397 C 100.401 203.273,100.831 202.731,100.966 202.192 C 101.115 201.598,101.598 201.115,102.192 200.966 C 102.731 200.831,103.280 200.378,103.413 199.960 C 103.557 199.505,104.021 199.200,104.569 199.200 C 105.889 199.200,107.614 197.426,107.878 195.795 C 108.003 195.028,108.238 194.400,108.401 194.400 C 108.563 194.400,108.821 193.140,108.973 191.600 C 109.124 190.060,109.418 188.800,109.624 188.800 C 109.831 188.800,110.000 188.350,110.000 187.800 C 110.000 187.250,110.160 186.800,110.357 186.800 C 110.553 186.800,110.832 186.326,110.977 185.748 C 111.319 184.388,114.388 181.319,115.748 180.977 C 116.326 180.832,116.800 180.553,116.800 180.357 C 116.800 180.160,117.250 180.000,117.800 180.000 C 118.350 180.000,118.800 179.831,118.800 179.624 C 118.800 179.418,120.060 179.124,121.600 178.973 C 123.140 178.821,124.400 178.540,124.400 178.348 C 124.400 177.867,127.502 177.907,127.667 178.390 C 127.887 179.034,137.238 178.986,137.638 178.339 C 138.077 177.629,152.668 177.546,153.115 178.251 C 153.272 178.499,154.133 178.824,155.028 178.974 C 155.936 179.126,156.904 179.590,157.217 180.023 C 157.525 180.450,157.967 180.800,158.199 180.800 C 158.684 180.800,160.000 182.234,160.000 182.762 C 160.000 182.956,160.270 183.218,160.600 183.345 C 160.930 183.471,161.200 184.016,161.200 184.554 C 161.200 185.093,161.384 185.595,161.609 185.670 C 161.835 185.745,162.132 186.525,162.271 187.403 C 162.410 188.281,162.721 189.128,162.962 189.285 C 163.267 189.484,163.400 194.314,163.400 205.200 C 163.400 216.086,163.267 220.916,162.962 221.115 C 162.721 221.272,162.410 222.119,162.271 222.997 C 162.132 223.875,161.835 224.655,161.609 224.730 C 161.384 224.805,161.200 225.289,161.200 225.805 C 161.200 226.321,160.930 227.013,160.600 227.343 C 160.270 227.673,160.000 228.046,160.000 228.171 C 160.000 228.559,158.424 230.000,158.000 230.000 C 157.780 230.000,157.600 230.177,157.600 230.392 C 157.600 230.608,157.105 230.906,156.500 231.054 C 155.895 231.202,155.300 231.475,155.178 231.660 C 155.055 231.845,153.840 232.113,152.478 232.255 C 151.115 232.397,150.000 232.668,150.000 232.857 C 150.000 233.046,147.930 233.200,145.400 233.200 C 142.870 233.200,140.800 233.046,140.800 232.857 C 140.800 232.668,139.685 232.397,138.322 232.255 C 136.960 232.113,135.721 231.797,135.571 231.553 C 135.380 231.244,135.252 231.240,135.148 231.537 C 134.938 232.146,123.668 232.351,123.286 231.754 C 123.128 231.509,122.604 231.184,122.120 231.033 C 121.637 230.883,121.133 230.417,121.000 230.000 C 120.867 229.583,120.415 229.132,119.993 228.998 C 119.504 228.843,119.128 228.225,118.953 227.287 C 118.661 225.732,118.225 225.116,117.120 224.698 C 116.634 224.514,116.504 224.605,116.663 225.020 C 116.786 225.339,117.023 225.600,117.190 225.600 C 117.358 225.600,117.597 226.361,117.722 227.291 C 117.846 228.222,118.140 229.047,118.374 229.125 C 118.608 229.203,118.800 229.572,118.800 229.944 C 118.800 230.749,119.941 231.802,121.257 232.213 C 121.776 232.375,122.290 232.645,122.400 232.813 C 122.510 232.981,127.624 233.218,133.764 233.340 C 142.287 233.509,145.007 233.684,145.258 234.081 C 145.450 234.383,145.590 234.417,145.594 234.161 C 145.598 233.880,147.356 233.634,150.466 233.477 C 153.143 233.343,155.438 233.071,155.566 232.874 C 155.695 232.677,156.475 232.391,157.300 232.240 C 158.125 232.088,158.800 231.811,158.800 231.625 C 158.800 231.439,159.247 231.174,159.794 231.037 C 160.407 230.883,160.883 230.407,161.037 229.794 C 161.174 229.247,161.439 228.800,161.625 228.800 C 161.811 228.800,162.088 228.125,162.240 227.300 C 162.391 226.475,162.679 225.693,162.880 225.563 C 163.080 225.432,163.351 223.677,163.481 221.663 C 163.612 219.648,163.872 218.000,164.059 218.000 C 164.247 218.000,164.400 212.240,164.400 205.200 C 164.400 198.160,164.247 192.400,164.060 192.400 C 163.873 192.400,163.602 190.745,163.459 188.723 C 163.315 186.701,163.041 184.946,162.849 184.823 C 162.657 184.700,162.374 184.015,162.218 183.300 C 162.063 182.585,161.771 182.000,161.568 182.000 C 161.366 182.000,161.200 181.758,161.200 181.461 C 161.200 180.654,159.932 179.356,158.800 179.003 C 158.250 178.832,157.700 178.537,157.578 178.348 C 157.455 178.159,156.240 177.887,154.878 177.745 C 153.515 177.603,152.400 177.344,152.400 177.171 C 152.400 176.798,146.586 176.553,141.567 176.715 M261.500 176.716 C 259.575 176.779,258.000 177.004,258.000 177.216 C 258.000 177.831,245.714 177.717,245.464 177.100 C 245.319 176.744,245.166 176.727,244.930 177.041 C 244.749 177.283,242.895 177.608,240.811 177.762 C 238.726 177.916,236.926 178.187,236.811 178.363 C 236.695 178.540,235.925 178.809,235.100 178.960 C 234.275 179.112,233.600 179.408,233.600 179.618 C 233.600 179.828,233.426 180.000,233.213 180.000 C 232.710 180.000,230.000 182.710,230.000 183.213 C 230.000 183.426,229.828 183.600,229.618 183.600 C 229.408 183.600,229.112 184.275,228.960 185.100 C 228.809 185.925,228.537 186.697,228.356 186.815 C 228.176 186.933,227.905 188.778,227.755 190.915 C 227.605 193.052,227.328 194.800,227.141 194.800 C 226.953 194.800,226.800 195.109,226.800 195.487 C 226.800 196.350,224.921 198.000,223.938 198.000 C 223.532 198.000,223.200 198.160,223.200 198.357 C 223.200 198.553,222.734 198.830,222.166 198.973 C 220.897 199.291,219.399 200.737,218.994 202.034 C 218.828 202.565,218.514 203.115,218.296 203.255 C 218.078 203.395,217.808 204.790,217.696 206.355 C 217.584 207.920,217.337 209.200,217.146 209.200 C 216.956 209.200,216.800 211.090,216.800 213.400 C 216.800 215.710,216.960 217.600,217.155 217.600 C 217.351 217.600,217.633 218.250,217.782 219.043 C 218.053 220.490,219.671 222.400,220.625 222.400 C 220.905 222.400,221.198 222.594,221.277 222.832 C 221.356 223.069,222.901 223.365,224.711 223.489 C 226.520 223.613,228.000 223.869,228.000 224.057 C 228.000 224.246,229.710 224.400,231.800 224.400 C 237.406 224.400,236.417 223.763,230.312 223.440 C 227.403 223.287,224.928 223.013,224.812 222.831 C 224.695 222.649,224.015 222.374,223.300 222.218 C 222.585 222.063,222.000 221.771,222.000 221.568 C 222.000 221.366,221.758 221.200,221.461 221.200 C 220.654 221.200,219.356 219.932,219.003 218.800 C 218.832 218.250,218.492 217.672,218.247 217.515 C 217.683 217.154,217.825 209.058,218.400 208.867 C 218.620 208.793,218.802 208.253,218.804 207.667 C 218.814 205.373,219.309 203.619,220.011 203.397 C 220.401 203.273,220.831 202.731,220.966 202.192 C 221.115 201.598,221.598 201.115,222.192 200.966 C 222.731 200.831,223.280 200.378,223.413 199.960 C 223.557 199.505,224.021 199.200,224.569 199.200 C 225.889 199.200,227.614 197.426,227.878 195.795 C 228.003 195.028,228.238 194.400,228.401 194.400 C 228.563 194.400,228.821 193.140,228.973 191.600 C 229.124 190.060,229.418 188.800,229.624 188.800 C 229.831 188.800,230.000 188.350,230.000 187.800 C 230.000 187.250,230.160 186.800,230.357 186.800 C 230.553 186.800,230.832 186.326,230.977 185.748 C 231.319 184.388,234.388 181.319,235.748 180.977 C 236.326 180.832,236.800 180.553,236.800 180.357 C 236.800 180.160,237.250 180.000,237.800 180.000 C 238.350 180.000,238.800 179.831,238.800 179.624 C 238.800 179.418,240.060 179.124,241.600 178.973 C 243.140 178.821,244.400 178.540,244.400 178.348 C 244.400 177.869,247.501 177.906,247.667 178.388 C 247.893 179.045,257.220 179.015,257.627 178.356 C 258.082 177.620,272.664 177.532,273.116 178.263 C 273.273 178.518,274.121 178.860,275.001 179.024 C 275.880 179.187,276.891 179.654,277.247 180.060 C 277.603 180.467,278.058 180.800,278.258 180.800 C 278.698 180.800,280.000 182.267,280.000 182.762 C 280.000 182.956,280.270 183.218,280.600 183.345 C 280.930 183.471,281.200 184.016,281.200 184.554 C 281.200 185.093,281.384 185.595,281.609 185.670 C 281.835 185.745,282.132 186.525,282.271 187.403 C 282.410 188.281,282.721 189.128,282.962 189.285 C 283.267 189.484,283.400 194.314,283.400 205.200 C 283.400 216.086,283.267 220.916,282.962 221.115 C 282.721 221.272,282.410 222.119,282.271 222.997 C 282.132 223.875,281.835 224.655,281.609 224.730 C 281.384 224.805,281.200 225.289,281.200 225.805 C 281.200 226.321,280.930 227.013,280.600 227.343 C 280.270 227.673,280.000 228.046,280.000 228.171 C 280.000 228.469,278.469 230.000,278.171 230.000 C 278.046 230.000,277.673 230.270,277.343 230.600 C 277.013 230.930,276.321 231.200,275.805 231.200 C 275.289 231.200,274.804 231.389,274.727 231.619 C 274.650 231.850,273.555 232.145,272.294 232.275 C 271.032 232.405,270.000 232.667,270.000 232.856 C 270.000 233.045,267.930 233.200,265.400 233.200 C 262.870 233.200,260.800 233.046,260.800 232.857 C 260.800 232.668,259.685 232.397,258.322 232.255 C 256.960 232.113,255.700 231.772,255.522 231.498 C 255.276 231.117,255.128 231.111,254.892 231.476 C 254.470 232.126,243.691 232.384,243.286 231.754 C 243.129 231.509,242.604 231.184,242.120 231.033 C 241.637 230.883,241.133 230.417,241.000 230.000 C 240.867 229.583,240.415 229.132,239.993 228.998 C 239.504 228.843,239.128 228.225,238.953 227.287 C 238.661 225.732,238.225 225.116,237.120 224.698 C 236.634 224.514,236.504 224.605,236.663 225.020 C 236.786 225.339,237.023 225.600,237.190 225.600 C 237.358 225.600,237.597 226.361,237.722 227.291 C 237.846 228.222,238.140 229.047,238.374 229.125 C 238.608 229.203,238.800 229.572,238.800 229.944 C 238.800 230.749,239.941 231.802,241.257 232.213 C 241.776 232.375,242.292 232.650,242.405 232.825 C 242.519 232.999,247.540 233.231,253.564 233.341 C 262.040 233.496,264.594 233.661,264.858 234.070 C 265.098 234.442,265.289 234.469,265.500 234.160 C 265.672 233.908,267.833 233.614,270.570 233.471 C 273.193 233.334,275.443 233.063,275.570 232.869 C 275.696 232.674,276.475 232.391,277.300 232.240 C 278.125 232.088,278.800 231.811,278.800 231.625 C 278.800 231.439,279.247 231.174,279.794 231.037 C 280.407 230.883,280.883 230.407,281.037 229.794 C 281.174 229.247,281.439 228.800,281.625 228.800 C 281.811 228.800,282.088 228.125,282.240 227.300 C 282.391 226.475,282.679 225.693,282.880 225.563 C 283.080 225.432,283.351 223.677,283.481 221.663 C 283.612 219.648,283.872 218.000,284.059 218.000 C 284.247 218.000,284.400 212.240,284.400 205.200 C 284.400 198.160,284.247 192.400,284.060 192.400 C 283.873 192.400,283.602 190.745,283.459 188.723 C 283.315 186.701,283.041 184.946,282.849 184.823 C 282.657 184.700,282.374 184.015,282.218 183.300 C 282.063 182.585,281.771 182.000,281.568 182.000 C 281.366 182.000,281.200 181.758,281.200 181.461 C 281.200 180.654,279.932 179.356,278.800 179.003 C 278.250 178.832,277.703 178.542,277.585 178.360 C 277.466 178.177,276.296 177.904,274.985 177.753 C 273.673 177.602,272.510 177.345,272.400 177.182 C 272.153 176.815,266.200 176.560,261.500 176.716 M145.270 196.300 C 145.231 197.235,145.020 198.000,144.800 198.000 C 144.580 198.000,144.400 198.990,144.400 200.200 C 144.400 203.114,145.120 203.034,145.304 200.100 L 145.449 197.800 145.524 200.100 C 145.621 203.038,146.400 203.127,146.400 200.200 C 146.400 198.990,146.230 198.000,146.023 198.000 C 145.816 198.000,145.577 197.235,145.493 196.300 L 145.340 194.600 145.270 196.300 M264.591 198.166 C 264.437 200.018,264.407 201.773,264.524 202.066 C 264.641 202.360,264.751 201.565,264.768 200.300 C 264.786 199.035,264.980 198.000,265.200 198.000 C 265.420 198.000,265.600 198.990,265.600 200.200 C 265.600 201.410,265.780 202.400,266.000 202.400 C 266.220 202.400,266.400 201.410,266.400 200.200 C 266.400 198.990,266.220 198.000,266.000 198.000 C 265.780 198.000,265.600 197.280,265.600 196.400 C 265.600 193.478,264.876 194.746,264.591 198.166 M185.206 197.048 C 185.203 197.294,184.368 197.590,183.351 197.704 C 182.333 197.819,181.388 198.088,181.251 198.303 C 181.113 198.517,180.604 198.816,180.120 198.967 C 179.637 199.117,179.117 199.637,178.967 200.120 C 178.816 200.604,178.530 201.105,178.332 201.232 C 178.134 201.360,177.860 202.170,177.724 203.032 C 177.588 203.895,177.279 204.735,177.038 204.900 C 176.721 205.117,176.721 205.283,177.039 205.500 C 177.281 205.665,177.602 206.873,177.753 208.185 C 177.904 209.496,178.187 210.668,178.382 210.789 C 178.577 210.909,178.859 211.495,179.008 212.090 C 179.157 212.685,179.605 213.275,180.003 213.401 C 180.401 213.527,180.827 213.894,180.950 214.215 C 181.074 214.537,181.451 214.800,181.787 214.800 C 182.124 214.800,182.400 214.980,182.400 215.200 C 182.400 215.420,182.226 215.600,182.014 215.600 C 181.326 215.600,179.236 217.915,178.971 218.972 C 178.829 219.538,178.566 220.000,178.385 220.000 C 178.205 220.000,177.930 221.035,177.775 222.300 C 177.619 223.565,177.291 224.735,177.046 224.900 C 176.724 225.117,176.722 225.283,177.038 225.500 C 177.279 225.665,177.590 226.519,177.729 227.397 C 177.868 228.275,178.165 229.055,178.391 229.130 C 178.616 229.205,178.800 229.572,178.800 229.944 C 178.800 230.749,179.941 231.802,181.257 232.213 C 181.776 232.375,182.309 232.676,182.441 232.882 C 182.739 233.345,196.476 233.316,196.781 232.852 C 196.902 232.670,198.881 232.400,201.181 232.253 C 203.480 232.106,205.460 231.833,205.581 231.647 C 205.701 231.460,206.223 231.176,206.739 231.014 C 207.256 230.853,208.363 230.037,209.200 229.200 C 210.037 228.363,210.853 227.256,211.014 226.739 C 211.176 226.223,211.509 225.665,211.754 225.500 C 212.079 225.281,212.073 225.117,211.732 224.896 C 211.474 224.729,211.140 224.099,210.988 223.496 C 210.837 222.893,210.567 222.400,210.387 222.400 C 210.208 222.400,209.522 221.860,208.862 221.200 C 208.202 220.540,207.468 220.000,207.231 220.000 C 206.994 220.000,206.800 219.840,206.800 219.643 C 206.800 219.447,206.358 219.176,205.818 219.040 C 203.290 218.406,204.056 211.871,206.758 211.013 C 207.959 210.632,210.639 207.941,211.014 206.739 C 211.176 206.223,211.509 205.665,211.754 205.500 C 212.079 205.281,212.073 205.117,211.732 204.896 C 211.474 204.729,211.140 204.099,210.988 203.496 C 210.837 202.893,210.567 202.400,210.387 202.400 C 210.208 202.400,209.522 201.860,208.862 201.200 C 208.202 200.540,207.483 200.000,207.264 200.000 C 207.046 200.000,206.801 199.802,206.720 199.561 C 206.640 199.319,205.680 199.023,204.587 198.903 C 203.494 198.783,202.499 198.529,202.375 198.339 C 202.251 198.149,198.471 197.878,193.975 197.737 C 188.757 197.572,185.694 197.320,185.506 197.039 C 185.294 196.723,185.211 196.725,185.206 197.048 M187.600 198.338 C 187.600 198.524,190.165 198.792,193.299 198.935 C 196.533 199.082,199.056 199.368,199.132 199.597 C 199.206 199.819,199.972 200.000,200.833 200.000 C 201.695 200.000,202.400 200.156,202.400 200.346 C 202.400 200.536,203.206 200.802,204.192 200.937 C 206.202 201.212,209.200 203.821,209.200 205.295 C 209.200 206.226,206.376 209.200,205.492 209.200 C 205.112 209.200,204.785 209.755,204.608 210.699 C 204.453 211.524,204.145 212.310,203.923 212.447 C 203.410 212.765,203.392 217.620,203.902 217.952 C 204.113 218.088,204.409 218.875,204.560 219.700 C 204.730 220.620,205.061 221.200,205.419 221.200 C 206.276 221.200,209.200 224.366,209.200 225.295 C 209.200 226.251,206.366 229.200,205.447 229.200 C 205.091 229.200,204.800 229.380,204.800 229.600 C 204.800 229.820,204.260 230.000,203.600 230.000 C 202.940 230.000,202.400 230.164,202.400 230.364 C 202.400 230.564,200.825 230.858,198.900 231.016 C 196.975 231.174,195.305 231.452,195.188 231.633 C 194.847 232.164,183.621 232.278,183.286 231.754 C 183.128 231.509,182.604 231.184,182.120 231.033 C 181.637 230.883,181.133 230.417,181.000 230.000 C 180.867 229.583,180.408 229.130,179.980 228.994 C 179.450 228.826,179.120 228.243,178.949 227.173 C 178.811 226.308,178.541 225.600,178.349 225.600 C 178.157 225.600,178.000 225.330,178.000 225.000 C 178.000 224.670,178.157 224.400,178.349 224.400 C 178.541 224.400,178.813 223.680,178.954 222.800 C 179.094 221.920,179.387 221.200,179.605 221.200 C 179.822 221.200,180.000 220.930,180.000 220.600 C 180.000 220.270,180.180 220.000,180.400 220.000 C 180.620 220.000,180.800 219.756,180.800 219.458 C 180.800 218.551,182.704 216.799,183.962 216.548 C 185.775 216.185,186.119 214.400,184.376 214.400 C 183.949 214.400,183.600 214.220,183.600 214.000 C 183.600 213.780,183.400 213.600,183.156 213.600 C 182.542 213.600,180.815 211.910,180.807 211.300 C 180.803 211.025,180.620 210.800,180.400 210.800 C 180.180 210.800,180.000 210.440,180.000 210.000 C 180.000 209.560,179.828 209.200,179.618 209.200 C 179.408 209.200,179.118 208.570,178.974 207.800 C 178.829 207.030,178.551 206.400,178.355 206.400 C 178.160 206.400,178.000 206.040,178.000 205.600 C 178.000 205.160,178.158 204.800,178.350 204.800 C 178.543 204.800,178.807 204.266,178.938 203.613 C 179.273 201.935,182.130 199.193,183.830 198.918 C 184.584 198.795,185.200 198.539,185.200 198.348 C 185.200 198.156,185.740 198.000,186.400 198.000 C 187.060 198.000,187.600 198.152,187.600 198.338 M143.600 205.400 C 143.600 206.610,143.780 207.600,144.000 207.600 C 144.220 207.600,144.400 206.610,144.400 205.400 C 144.400 204.190,144.220 203.200,144.000 203.200 C 143.780 203.200,143.600 204.190,143.600 205.400 M146.524 205.400 C 146.526 206.720,146.601 207.212,146.690 206.493 C 146.779 205.774,146.777 204.694,146.686 204.093 C 146.595 203.492,146.522 204.080,146.524 205.400 M263.600 205.400 C 263.600 206.610,263.780 207.600,264.000 207.600 C 264.220 207.600,264.400 206.610,264.400 205.400 C 264.400 204.190,264.220 203.200,264.000 203.200 C 263.780 203.200,263.600 204.190,263.600 205.400 M266.524 205.400 C 266.526 206.720,266.601 207.212,266.690 206.493 C 266.779 205.774,266.777 204.694,266.686 204.093 C 266.595 203.492,266.522 204.080,266.524 205.400 M114.400 205.200 C 114.400 205.420,114.670 205.600,115.000 205.600 C 115.330 205.600,115.600 205.420,115.600 205.200 C 115.600 204.980,115.330 204.800,115.000 204.800 C 114.670 204.800,114.400 204.980,114.400 205.200 M234.400 205.200 C 234.400 205.420,234.670 205.600,235.000 205.600 C 235.330 205.600,235.600 205.420,235.600 205.200 C 235.600 204.980,235.330 204.800,235.000 204.800 C 234.670 204.800,234.400 204.980,234.400 205.200 M144.400 210.200 C 144.400 211.410,144.570 212.400,144.777 212.400 C 144.984 212.400,145.223 213.165,145.307 214.100 L 145.460 215.800 145.530 214.100 C 145.569 213.165,145.780 212.400,146.000 212.400 C 146.220 212.400,146.400 211.410,146.400 210.200 C 146.400 207.286,145.680 207.366,145.496 210.300 L 145.351 212.600 145.276 210.300 C 145.179 207.362,144.400 207.273,144.400 210.200 M264.476 209.241 C 264.360 211.443,264.871 215.600,265.257 215.600 C 265.446 215.600,265.600 214.880,265.600 214.000 C 265.600 213.120,265.780 212.400,266.000 212.400 C 266.220 212.400,266.400 211.410,266.400 210.200 C 266.400 208.990,266.220 208.000,266.000 208.000 C 265.780 208.000,265.600 208.990,265.600 210.200 C 265.600 213.114,264.880 213.034,264.696 210.100 C 264.612 208.765,264.520 208.405,264.476 209.241 " stroke="none" fill="#c4c8d0" fill-rule="evenodd"></path><path id="path4" d="M141.567 176.715 C 139.605 176.778,138.000 177.003,138.000 177.215 C 138.000 177.445,135.506 177.600,131.800 177.600 C 127.110 177.600,125.599 177.478,125.594 177.100 C 125.590 176.754,125.497 176.736,125.294 177.040 C 125.132 177.282,123.207 177.603,121.015 177.754 C 118.823 177.905,116.933 178.185,116.814 178.377 C 116.695 178.569,115.924 178.853,115.099 179.008 C 114.275 179.162,113.600 179.449,113.600 179.645 C 113.600 179.840,113.426 180.000,113.213 180.000 C 112.710 180.000,110.000 182.710,110.000 183.213 C 110.000 183.426,109.828 183.600,109.618 183.600 C 109.408 183.600,109.112 184.275,108.960 185.100 C 108.809 185.925,108.537 186.697,108.356 186.815 C 108.176 186.933,107.905 188.778,107.755 190.915 C 107.605 193.052,107.328 194.800,107.141 194.800 C 106.953 194.800,106.797 195.115,106.793 195.500 C 106.784 196.452,105.081 198.000,104.044 198.000 C 103.580 198.000,103.200 198.160,103.200 198.357 C 103.200 198.553,102.734 198.830,102.166 198.973 C 100.897 199.291,99.399 200.737,98.994 202.034 C 98.828 202.565,98.514 203.115,98.296 203.255 C 98.078 203.395,97.808 204.790,97.696 206.355 C 97.584 207.920,97.337 209.200,97.146 209.200 C 96.956 209.200,96.800 211.090,96.800 213.400 C 96.800 215.710,96.960 217.600,97.155 217.600 C 97.351 217.600,97.633 218.250,97.782 219.043 C 98.053 220.490,99.671 222.400,100.625 222.400 C 100.905 222.400,101.198 222.594,101.277 222.832 C 101.356 223.069,102.901 223.365,104.711 223.489 C 106.520 223.613,108.000 223.869,108.000 224.057 C 108.000 224.246,109.710 224.400,111.800 224.400 C 117.314 224.400,116.460 223.768,110.517 223.450 C 107.721 223.301,105.336 223.029,105.217 222.847 C 105.098 222.665,104.325 222.391,103.500 222.240 C 102.675 222.088,102.000 221.792,102.000 221.582 C 102.000 221.372,101.758 221.200,101.461 221.200 C 100.654 221.200,99.356 219.932,99.003 218.800 C 98.832 218.250,98.492 217.672,98.247 217.515 C 97.683 217.154,97.825 209.058,98.400 208.867 C 98.620 208.793,98.802 208.253,98.804 207.667 C 98.814 205.373,99.309 203.619,100.011 203.397 C 100.401 203.273,100.831 202.731,100.966 202.192 C 101.115 201.598,101.598 201.115,102.192 200.966 C 102.731 200.831,103.280 200.378,103.413 199.960 C 103.557 199.505,104.021 199.200,104.569 199.200 C 105.889 199.200,107.614 197.426,107.878 195.795 C 108.003 195.028,108.238 194.400,108.401 194.400 C 108.563 194.400,108.821 193.140,108.973 191.600 C 109.124 190.060,109.418 188.800,109.624 188.800 C 109.831 188.800,110.000 188.350,110.000 187.800 C 110.000 187.250,110.160 186.800,110.357 186.800 C 110.553 186.800,110.832 186.326,110.977 185.748 C 111.319 184.388,114.388 181.319,115.748 180.977 C 116.326 180.832,116.800 180.553,116.800 180.357 C 116.800 180.160,117.250 180.000,117.800 180.000 C 118.350 180.000,118.800 179.831,118.800 179.624 C 118.800 179.418,120.060 179.124,121.600 178.973 C 123.140 178.821,124.400 178.540,124.400 178.348 C 124.400 177.867,127.502 177.907,127.667 178.390 C 127.887 179.034,137.238 178.986,137.638 178.339 C 138.077 177.629,152.668 177.546,153.115 178.251 C 153.272 178.499,154.133 178.824,155.028 178.974 C 155.936 179.126,156.904 179.590,157.217 180.023 C 157.525 180.450,157.967 180.800,158.199 180.800 C 158.684 180.800,160.000 182.234,160.000 182.762 C 160.000 182.956,160.270 183.218,160.600 183.345 C 160.930 183.471,161.200 184.016,161.200 184.554 C 161.200 185.093,161.384 185.595,161.609 185.670 C 161.835 185.745,162.132 186.525,162.271 187.403 C 162.410 188.281,162.721 189.128,162.962 189.285 C 163.267 189.484,163.400 194.314,163.400 205.200 C 163.400 216.086,163.267 220.916,162.962 221.115 C 162.721 221.272,162.410 222.119,162.271 222.997 C 162.132 223.875,161.835 224.655,161.609 224.730 C 161.384 224.805,161.200 225.289,161.200 225.805 C 161.200 226.321,160.930 227.013,160.600 227.343 C 160.270 227.673,160.000 228.046,160.000 228.171 C 160.000 228.559,158.424 230.000,158.000 230.000 C 157.780 230.000,157.600 230.177,157.600 230.392 C 157.600 230.608,157.105 230.906,156.500 231.054 C 155.895 231.202,155.300 231.475,155.178 231.660 C 155.055 231.845,153.840 232.113,152.478 232.255 C 151.115 232.397,150.000 232.668,150.000 232.857 C 150.000 233.046,147.930 233.200,145.400 233.200 C 142.870 233.200,140.800 233.046,140.800 232.857 C 140.800 232.668,139.685 232.397,138.322 232.255 C 136.960 232.113,135.721 231.797,135.571 231.553 C 135.380 231.244,135.252 231.240,135.148 231.537 C 134.938 232.146,123.668 232.351,123.286 231.754 C 123.128 231.509,122.604 231.184,122.120 231.033 C 121.637 230.883,121.133 230.417,121.000 230.000 C 120.867 229.583,120.415 229.132,119.993 228.998 C 119.504 228.843,119.128 228.225,118.953 227.287 C 118.661 225.732,118.225 225.116,117.120 224.698 C 116.634 224.514,116.504 224.605,116.663 225.020 C 116.786 225.339,117.023 225.600,117.190 225.600 C 117.358 225.600,117.597 226.361,117.722 227.291 C 117.846 228.222,118.140 229.047,118.374 229.125 C 118.608 229.203,118.800 229.572,118.800 229.944 C 118.800 230.749,119.941 231.802,121.257 232.213 C 121.776 232.375,122.290 232.645,122.400 232.813 C 122.510 232.981,127.624 233.218,133.764 233.340 C 142.287 233.509,145.007 233.684,145.258 234.081 C 145.450 234.383,145.590 234.417,145.594 234.161 C 145.598 233.880,147.356 233.634,150.466 233.477 C 153.143 233.343,155.438 233.071,155.566 232.874 C 155.695 232.677,156.475 232.391,157.300 232.240 C 158.125 232.088,158.800 231.811,158.800 231.625 C 158.800 231.439,159.247 231.174,159.794 231.037 C 160.407 230.883,160.883 230.407,161.037 229.794 C 161.174 229.247,161.439 228.800,161.625 228.800 C 161.811 228.800,162.088 228.125,162.240 227.300 C 162.391 226.475,162.679 225.693,162.880 225.563 C 163.080 225.432,163.351 223.677,163.481 221.663 C 163.612 219.648,163.872 218.000,164.059 218.000 C 164.247 218.000,164.400 212.240,164.400 205.200 C 164.400 198.160,164.247 192.400,164.060 192.400 C 163.873 192.400,163.602 190.745,163.459 188.723 C 163.315 186.701,163.041 184.946,162.849 184.823 C 162.657 184.700,162.374 184.015,162.218 183.300 C 162.063 182.585,161.771 182.000,161.568 182.000 C 161.366 182.000,161.200 181.758,161.200 181.461 C 161.200 180.654,159.932 179.356,158.800 179.003 C 158.250 178.832,157.700 178.537,157.578 178.348 C 157.455 178.159,156.240 177.887,154.878 177.745 C 153.515 177.603,152.400 177.344,152.400 177.171 C 152.400 176.798,146.586 176.553,141.567 176.715 M261.500 176.716 C 259.575 176.779,258.000 177.004,258.000 177.216 C 258.000 177.831,245.714 177.717,245.464 177.100 C 245.319 176.744,245.166 176.727,244.930 177.041 C 244.749 177.283,242.895 177.608,240.811 177.762 C 238.726 177.916,236.926 178.187,236.811 178.363 C 236.695 178.540,235.925 178.809,235.100 178.960 C 234.275 179.112,233.600 179.408,233.600 179.618 C 233.600 179.828,233.426 180.000,233.213 180.000 C 232.710 180.000,230.000 182.710,230.000 183.213 C 230.000 183.426,229.828 183.600,229.618 183.600 C 229.408 183.600,229.112 184.275,228.960 185.100 C 228.809 185.925,228.537 186.697,228.356 186.815 C 228.176 186.933,227.905 188.778,227.755 190.915 C 227.605 193.052,227.328 194.800,227.141 194.800 C 226.953 194.800,226.800 195.109,226.800 195.487 C 226.800 196.350,224.921 198.000,223.938 198.000 C 223.532 198.000,223.200 198.160,223.200 198.357 C 223.200 198.553,222.734 198.830,222.166 198.973 C 220.897 199.291,219.399 200.737,218.994 202.034 C 218.828 202.565,218.514 203.115,218.296 203.255 C 218.078 203.395,217.808 204.790,217.696 206.355 C 217.584 207.920,217.337 209.200,217.146 209.200 C 216.956 209.200,216.800 211.090,216.800 213.400 C 216.800 215.710,216.960 217.600,217.155 217.600 C 217.351 217.600,217.633 218.250,217.782 219.043 C 218.053 220.490,219.671 222.400,220.625 222.400 C 220.905 222.400,221.198 222.594,221.277 222.832 C 221.356 223.069,222.901 223.365,224.711 223.489 C 226.520 223.613,228.000 223.869,228.000 224.057 C 228.000 224.246,229.710 224.400,231.800 224.400 C 237.406 224.400,236.417 223.763,230.312 223.440 C 227.403 223.287,224.928 223.013,224.812 222.831 C 224.695 222.649,224.015 222.374,223.300 222.218 C 222.585 222.063,222.000 221.771,222.000 221.568 C 222.000 221.366,221.758 221.200,221.461 221.200 C 220.654 221.200,219.356 219.932,219.003 218.800 C 218.832 218.250,218.492 217.672,218.247 217.515 C 217.683 217.154,217.825 209.058,218.400 208.867 C 218.620 208.793,218.802 208.253,218.804 207.667 C 218.814 205.373,219.309 203.619,220.011 203.397 C 220.401 203.273,220.831 202.731,220.966 202.192 C 221.115 201.598,221.598 201.115,222.192 200.966 C 222.731 200.831,223.280 200.378,223.413 199.960 C 223.557 199.505,224.021 199.200,224.569 199.200 C 225.889 199.200,227.614 197.426,227.878 195.795 C 228.003 195.028,228.238 194.400,228.401 194.400 C 228.563 194.400,228.821 193.140,228.973 191.600 C 229.124 190.060,229.418 188.800,229.624 188.800 C 229.831 188.800,230.000 188.350,230.000 187.800 C 230.000 187.250,230.160 186.800,230.357 186.800 C 230.553 186.800,230.832 186.326,230.977 185.748 C 231.319 184.388,234.388 181.319,235.748 180.977 C 236.326 180.832,236.800 180.553,236.800 180.357 C 236.800 180.160,237.250 180.000,237.800 180.000 C 238.350 180.000,238.800 179.831,238.800 179.624 C 238.800 179.418,240.060 179.124,241.600 178.973 C 243.140 178.821,244.400 178.540,244.400 178.348 C 244.400 177.869,247.501 177.906,247.667 178.388 C 247.893 179.045,257.220 179.015,257.627 178.356 C 258.082 177.620,272.664 177.532,273.116 178.263 C 273.273 178.518,274.121 178.860,275.001 179.024 C 275.880 179.187,276.891 179.654,277.247 180.060 C 277.603 180.467,278.058 180.800,278.258 180.800 C 278.698 180.800,280.000 182.267,280.000 182.762 C 280.000 182.956,280.270 183.218,280.600 183.345 C 280.930 183.471,281.200 184.016,281.200 184.554 C 281.200 185.093,281.384 185.595,281.609 185.670 C 281.835 185.745,282.132 186.525,282.271 187.403 C 282.410 188.281,282.721 189.128,282.962 189.285 C 283.267 189.484,283.400 194.314,283.400 205.200 C 283.400 216.086,283.267 220.916,282.962 221.115 C 282.721 221.272,282.410 222.119,282.271 222.997 C 282.132 223.875,281.835 224.655,281.609 224.730 C 281.384 224.805,281.200 225.289,281.200 225.805 C 281.200 226.321,280.930 227.013,280.600 227.343 C 280.270 227.673,280.000 228.046,280.000 228.171 C 280.000 228.469,278.469 230.000,278.171 230.000 C 278.046 230.000,277.673 230.270,277.343 230.600 C 277.013 230.930,276.321 231.200,275.805 231.200 C 275.289 231.200,274.804 231.389,274.727 231.619 C 274.650 231.850,273.555 232.145,272.294 232.275 C 271.032 232.405,270.000 232.667,270.000 232.856 C 270.000 233.045,267.930 233.200,265.400 233.200 C 262.870 233.200,260.800 233.046,260.800 232.857 C 260.800 232.668,259.685 232.397,258.322 232.255 C 256.960 232.113,255.700 231.772,255.522 231.498 C 255.276 231.117,255.128 231.111,254.892 231.476 C 254.470 232.126,243.691 232.384,243.286 231.754 C 243.129 231.509,242.604 231.184,242.120 231.033 C 241.637 230.883,241.133 230.417,241.000 230.000 C 240.867 229.583,240.415 229.132,239.993 228.998 C 239.504 228.843,239.128 228.225,238.953 227.287 C 238.661 225.732,238.225 225.116,237.120 224.698 C 236.634 224.514,236.504 224.605,236.663 225.020 C 236.786 225.339,237.023 225.600,237.190 225.600 C 237.358 225.600,237.597 226.361,237.722 227.291 C 237.846 228.222,238.140 229.047,238.374 229.125 C 238.608 229.203,238.800 229.572,238.800 229.944 C 238.800 230.749,239.941 231.802,241.257 232.213 C 241.776 232.375,242.292 232.650,242.405 232.825 C 242.519 232.999,247.540 233.231,253.564 233.341 C 262.040 233.496,264.594 233.661,264.858 234.070 C 265.098 234.442,265.289 234.469,265.500 234.160 C 265.672 233.908,267.833 233.614,270.570 233.471 C 273.193 233.334,275.443 233.063,275.570 232.869 C 275.696 232.674,276.475 232.391,277.300 232.240 C 278.125 232.088,278.800 231.811,278.800 231.625 C 278.800 231.439,279.247 231.174,279.794 231.037 C 280.407 230.883,280.883 230.407,281.037 229.794 C 281.174 229.247,281.439 228.800,281.625 228.800 C 281.811 228.800,282.088 228.125,282.240 227.300 C 282.391 226.475,282.679 225.693,282.880 225.563 C 283.080 225.432,283.351 223.677,283.481 221.663 C 283.612 219.648,283.872 218.000,284.059 218.000 C 284.247 218.000,284.400 212.240,284.400 205.200 C 284.400 198.160,284.247 192.400,284.060 192.400 C 283.873 192.400,283.602 190.745,283.459 188.723 C 283.315 186.701,283.041 184.946,282.849 184.823 C 282.657 184.700,282.374 184.015,282.218 183.300 C 282.063 182.585,281.771 182.000,281.568 182.000 C 281.366 182.000,281.200 181.758,281.200 181.461 C 281.200 180.654,279.932 179.356,278.800 179.003 C 278.250 178.832,277.703 178.542,277.585 178.360 C 277.466 178.177,276.296 177.904,274.985 177.753 C 273.673 177.602,272.510 177.345,272.400 177.182 C 272.153 176.815,266.200 176.560,261.500 176.716 M145.270 196.300 C 145.231 197.235,145.020 198.000,144.800 198.000 C 144.580 198.000,144.400 198.990,144.400 200.200 C 144.400 203.114,145.120 203.034,145.304 200.100 L 145.449 197.800 145.524 200.100 C 145.621 203.038,146.400 203.127,146.400 200.200 C 146.400 198.990,146.230 198.000,146.023 198.000 C 145.816 198.000,145.577 197.235,145.493 196.300 L 145.340 194.600 145.270 196.300 M264.591 198.166 C 264.437 200.018,264.407 201.773,264.524 202.066 C 264.641 202.360,264.751 201.565,264.768 200.300 C 264.786 199.035,264.980 198.000,265.200 198.000 C 265.420 198.000,265.600 198.990,265.600 200.200 C 265.600 201.410,265.780 202.400,266.000 202.400 C 266.220 202.400,266.400 201.410,266.400 200.200 C 266.400 198.990,266.220 198.000,266.000 198.000 C 265.780 198.000,265.600 197.280,265.600 196.400 C 265.600 193.478,264.876 194.746,264.591 198.166 M185.206 197.048 C 185.203 197.294,184.368 197.590,183.351 197.704 C 182.333 197.819,181.388 198.088,181.251 198.303 C 181.113 198.517,180.604 198.816,180.120 198.967 C 179.637 199.117,179.117 199.637,178.967 200.120 C 178.816 200.604,178.530 201.105,178.332 201.232 C 178.134 201.360,177.860 202.170,177.724 203.032 C 177.588 203.895,177.279 204.735,177.038 204.900 C 176.721 205.117,176.721 205.283,177.039 205.500 C 177.281 205.665,177.602 206.873,177.753 208.185 C 177.904 209.496,178.187 210.668,178.382 210.789 C 178.577 210.909,178.859 211.495,179.008 212.090 C 179.157 212.685,179.605 213.275,180.003 213.401 C 180.401 213.527,180.827 213.894,180.950 214.215 C 181.074 214.537,181.451 214.800,181.787 214.800 C 182.124 214.800,182.400 214.980,182.400 215.200 C 182.400 215.420,182.226 215.600,182.014 215.600 C 181.326 215.600,179.236 217.915,178.971 218.972 C 178.829 219.538,178.566 220.000,178.385 220.000 C 178.205 220.000,177.930 221.035,177.775 222.300 C 177.619 223.565,177.291 224.735,177.046 224.900 C 176.724 225.117,176.722 225.283,177.038 225.500 C 177.279 225.665,177.590 226.519,177.729 227.397 C 177.868 228.275,178.165 229.055,178.391 229.130 C 178.616 229.205,178.800 229.572,178.800 229.944 C 178.800 230.749,179.941 231.802,181.257 232.213 C 181.776 232.375,182.309 232.676,182.441 232.882 C 182.739 233.345,196.476 233.316,196.781 232.852 C 196.902 232.670,198.881 232.400,201.181 232.253 C 203.480 232.106,205.460 231.833,205.581 231.647 C 205.701 231.460,206.223 231.176,206.739 231.014 C 207.256 230.853,208.363 230.037,209.200 229.200 C 210.037 228.363,210.853 227.256,211.014 226.739 C 211.176 226.223,211.509 225.665,211.754 225.500 C 212.079 225.281,212.073 225.117,211.732 224.896 C 211.474 224.729,211.140 224.099,210.988 223.496 C 210.837 222.893,210.567 222.400,210.387 222.400 C 210.208 222.400,209.522 221.860,208.862 221.200 C 208.202 220.540,207.468 220.000,207.231 220.000 C 206.994 220.000,206.800 219.840,206.800 219.643 C 206.800 219.447,206.358 219.176,205.818 219.040 C 203.290 218.406,204.056 211.871,206.758 211.013 C 207.959 210.632,210.639 207.941,211.014 206.739 C 211.176 206.223,211.509 205.665,211.754 205.500 C 212.079 205.281,212.073 205.117,211.732 204.896 C 211.474 204.729,211.140 204.099,210.988 203.496 C 210.837 202.893,210.567 202.400,210.387 202.400 C 210.208 202.400,209.522 201.860,208.862 201.200 C 208.202 200.540,207.483 200.000,207.264 200.000 C 207.046 200.000,206.801 199.802,206.720 199.561 C 206.640 199.319,205.680 199.023,204.587 198.903 C 203.494 198.783,202.499 198.529,202.375 198.339 C 202.251 198.149,198.471 197.878,193.975 197.737 C 188.757 197.572,185.694 197.320,185.506 197.039 C 185.294 196.723,185.211 196.725,185.206 197.048 M187.600 198.338 C 187.600 198.524,190.165 198.792,193.299 198.935 C 196.533 199.082,199.056 199.368,199.132 199.597 C 199.206 199.819,199.972 200.000,200.833 200.000 C 201.695 200.000,202.400 200.156,202.400 200.346 C 202.400 200.536,203.206 200.802,204.192 200.937 C 206.202 201.212,209.200 203.821,209.200 205.295 C 209.200 206.226,206.376 209.200,205.492 209.200 C 205.112 209.200,204.785 209.755,204.608 210.699 C 204.453 211.524,204.145 212.310,203.923 212.447 C 203.410 212.765,203.392 217.620,203.902 217.952 C 204.113 218.088,204.409 218.875,204.560 219.700 C 204.730 220.620,205.061 221.200,205.419 221.200 C 206.276 221.200,209.200 224.366,209.200 225.295 C 209.200 226.251,206.366 229.200,205.447 229.200 C 205.091 229.200,204.800 229.380,204.800 229.600 C 204.800 229.820,204.260 230.000,203.600 230.000 C 202.940 230.000,202.400 230.164,202.400 230.364 C 202.400 230.564,200.825 230.858,198.900 231.016 C 196.975 231.174,195.305 231.452,195.188 231.633 C 194.847 232.164,183.621 232.278,183.286 231.754 C 183.128 231.509,182.604 231.184,182.120 231.033 C 181.637 230.883,181.133 230.417,181.000 230.000 C 180.867 229.583,180.408 229.130,179.980 228.994 C 179.450 228.826,179.120 228.243,178.949 227.173 C 178.811 226.308,178.541 225.600,178.349 225.600 C 178.157 225.600,178.000 225.330,178.000 225.000 C 178.000 224.670,178.157 224.400,178.349 224.400 C 178.541 224.400,178.813 223.680,178.954 222.800 C 179.094 221.920,179.387 221.200,179.605 221.200 C 179.822 221.200,180.000 220.930,180.000 220.600 C 180.000 220.270,180.180 220.000,180.400 220.000 C 180.620 220.000,180.800 219.756,180.800 219.458 C 180.800 218.551,182.704 216.799,183.962 216.548 C 185.775 216.185,186.119 214.400,184.376 214.400 C 183.949 214.400,183.600 214.220,183.600 214.000 C 183.600 213.780,183.400 213.600,183.156 213.600 C 182.542 213.600,180.815 211.910,180.807 211.300 C 180.803 211.025,180.620 210.800,180.400 210.800 C 180.180 210.800,180.000 210.440,180.000 210.000 C 180.000 209.560,179.828 209.200,179.618 209.200 C 179.408 209.200,179.118 208.570,178.974 207.800 C 178.829 207.030,178.551 206.400,178.355 206.400 C 178.160 206.400,178.000 206.040,178.000 205.600 C 178.000 205.160,178.158 204.800,178.350 204.800 C 178.543 204.800,178.807 204.266,178.938 203.613 C 179.273 201.935,182.130 199.193,183.830 198.918 C 184.584 198.795,185.200 198.539,185.200 198.348 C 185.200 198.156,185.740 198.000,186.400 198.000 C 187.060 198.000,187.600 198.152,187.600 198.338 M143.600 205.400 C 143.600 206.610,143.780 207.600,144.000 207.600 C 144.220 207.600,144.400 206.610,144.400 205.400 C 144.400 204.190,144.220 203.200,144.000 203.200 C 143.780 203.200,143.600 204.190,143.600 205.400 M146.524 205.400 C 146.526 206.720,146.601 207.212,146.690 206.493 C 146.779 205.774,146.777 204.694,146.686 204.093 C 146.595 203.492,146.522 204.080,146.524 205.400 M263.600 205.400 C 263.600 206.610,263.780 207.600,264.000 207.600 C 264.220 207.600,264.400 206.610,264.400 205.400 C 264.400 204.190,264.220 203.200,264.000 203.200 C 263.780 203.200,263.600 204.190,263.600 205.400 M266.524 205.400 C 266.526 206.720,266.601 207.212,266.690 206.493 C 266.779 205.774,266.777 204.694,266.686 204.093 C 266.595 203.492,266.522 204.080,266.524 205.400 M114.400 205.200 C 114.400 205.420,114.670 205.600,115.000 205.600 C 115.330 205.600,115.600 205.420,115.600 205.200 C 115.600 204.980,115.330 204.800,115.000 204.800 C 114.670 204.800,114.400 204.980,114.400 205.200 M234.400 205.200 C 234.400 205.420,234.670 205.600,235.000 205.600 C 235.330 205.600,235.600 205.420,235.600 205.200 C 235.600 204.980,235.330 204.800,235.000 204.800 C 234.670 204.800,234.400 204.980,234.400 205.200 M144.400 210.200 C 144.400 211.410,144.570 212.400,144.777 212.400 C 144.984 212.400,145.223 213.165,145.307 214.100 L 145.460 215.800 145.530 214.100 C 145.569 213.165,145.780 212.400,146.000 212.400 C 146.220 212.400,146.400 211.410,146.400 210.200 C 146.400 207.286,145.680 207.366,145.496 210.300 L 145.351 212.600 145.276 210.300 C 145.179 207.362,144.400 207.273,144.400 210.200 M264.476 209.241 C 264.360 211.443,264.871 215.600,265.257 215.600 C 265.446 215.600,265.600 214.880,265.600 214.000 C 265.600 213.120,265.780 212.400,266.000 212.400 C 266.220 212.400,266.400 211.410,266.400 210.200 C 266.400 208.990,266.220 208.000,266.000 208.000 C 265.780 208.000,265.600 208.990,265.600 210.200 C 265.600 213.114,264.880 213.034,264.696 210.100 C 264.612 208.765,264.520 208.405,264.476 209.241 " stroke="none" fill="#c4c8d0" fill-rule="evenodd"></path></g></svg>
